<svg width="100" height="100" viewBox="0 0 100 100" fill="none" xmlns="http://www.w3.org/2000/svg">
<rect width="100" height="100" fill="#014165"/>
<path d="M78.6778 77.5327H71.5682L74.4858 73.6909H66.5869L63.7723 77.3901C62.7201 78.8602 62.6182 80.3439 62.6182 81.3736V81.9557C62.6182 82.6285 63.035 82.9943 63.6535 82.9943H78.6778C79.2837 82.9943 79.6926 82.6601 79.6926 81.9761V78.5545C79.6926 77.8657 79.2837 77.5327 78.6778 77.5327ZM38.2055 63.9605C38.0923 63.3172 37.6562 63 37.0889 63H35.0796C32.9888 63 31.1436 64.1089 30.1096 65.784C30.1096 65.784 28.1921 68.8501 26.0434 72.3011H39.6848L38.2055 63.9605ZM60.6746 64.0184C60.6746 63.3341 60.2669 63 59.6564 63H55.5665C54.9606 63 54.5516 63.3341 54.5516 64.0184V71.77L50.6747 64.8009C49.8999 63.5166 48.5952 63.0284 47.073 63H44.05C43.4496 63 43.0396 63.3341 43.0396 64.0184V72.3057H48.1206L48.9021 73.6909H43.0396V81.9761C43.0396 82.6601 43.4496 83 44.05 83H48.1501C48.7593 83 49.1626 82.6601 49.1626 81.9761L49.1603 74.1757L53.0736 81.2014C53.8404 82.4789 55.1497 82.9672 56.6617 83H59.6564C60.2669 83 60.6746 82.6601 60.6746 81.9761V73.6909H55.63L54.8506 72.3057H60.6746V64.0184ZM39.9272 73.6909H33.1903C33.3624 74.6332 34.605 81.6397 34.6786 82.0475C34.7931 82.6783 35.1861 83 35.7625 83H40.3973C40.8219 83 41.036 82.8664 41.2354 82.624C41.3713 82.4552 41.4279 82.1992 41.3644 81.8243L39.9272 73.6909ZM20.1481 81.7462C19.9647 82.0599 19.9647 82.3895 20.0768 82.6035C20.2059 82.8538 20.4936 83 20.8039 83H25.6176C26.2246 83 26.7673 82.6727 27.0696 82.1834L32.3816 73.6909H25.1758C22.7022 77.6562 20.2104 81.6545 20.1481 81.7462ZM63.7883 68.4548H70.5614L67.6404 72.3011H75.537L78.4172 68.5125C79.3064 67.3414 79.5124 66.2927 79.5124 65.365V64.0455C79.5124 63.3692 79.1036 63 78.4807 63H63.7883C63.1823 63 62.7768 63.3341 62.7768 64.0184V67.44C62.7768 68.1218 63.1823 68.4548 63.7883 68.4548Z" fill="white"/>
<path d="M49.7146 27.6258C52.0656 27.6258 54.7418 29.6667 54.7418 32.4856C54.7418 34.0741 54.2354 35.3007 53.4904 36.4212C53.013 37.1354 52.6489 37.9576 52.4987 38.5527C52.3371 39.2246 51.9827 40.8515 53.9718 40.8786C55.2657 40.9112 58.4503 39.785 61.0227 36.683C63.0019 34.1914 64.1784 31.0318 64.1784 27.5854C64.1784 19.5313 57.7108 13 49.7146 13C41.7163 13 35.2369 19.5313 35.2369 27.5854C35.2369 31.0318 36.4117 34.1914 38.3929 36.683C40.9692 39.785 44.1518 40.9112 45.4439 40.8786C47.433 40.8515 47.0728 39.2246 46.9187 38.5527C46.7724 37.9576 46.4066 37.1354 45.9252 36.4212C45.1821 35.3007 44.6739 34.0741 44.6739 32.4856C44.6796 29.6667 47.3521 27.6258 49.7146 27.6258ZM75.2999 42.3671C74.7069 41.876 73.667 41.1597 71.5319 40.8304C68.5686 40.3876 65.9247 41.0826 64.3325 41.7141C62.2397 42.5423 59.6613 44.4252 57.8803 46.8782C56.001 49.4699 55.0286 53.3826 55.9608 57.4606C56.2245 58.6082 56.5095 59.2552 56.935 60.0599C57.4915 61.1535 58.9585 62.6805 60.243 62.9559C61.2577 63.1658 62.0509 62.5822 62.44 62.1413C65.0275 59.1436 74.8339 47.5348 75.8967 46.0524C76.9406 44.5793 76.2587 43.1639 75.2999 42.3671ZM35.0907 41.7141C33.4985 41.0826 30.8567 40.3876 27.8934 40.8304C25.7581 41.1597 24.7088 41.876 24.1234 42.3671C23.1645 43.1639 22.4772 44.5793 23.5265 46.0524C24.5836 47.5348 34.3879 59.1436 36.9757 62.1413C37.3647 62.5822 38.158 63.1658 39.1747 62.9559C40.4667 62.6805 41.928 61.1535 42.4824 60.0599C42.914 59.2552 43.193 58.6082 43.4644 57.4606C44.3946 53.3826 43.4068 49.4699 41.545 46.8782C39.7619 44.4252 37.1799 42.5423 35.0907 41.7141Z" fill="#007DBA"/>
</svg>
