<svg width="100" height="100" viewBox="0 0 100 100" fill="none" xmlns="http://www.w3.org/2000/svg">
<rect width="100" height="100" rx="12" fill="white"/>
<path d="M12.5 35C12.5 22.5736 22.5736 12.5 35 12.5H65C77.4264 12.5 87.5 22.5736 87.5 35V65C87.5 77.4264 77.4264 87.5 65 87.5H35C22.5736 87.5 12.5 77.4264 12.5 65V35Z" fill="#130177"/>
<path fill-rule="evenodd" clip-rule="evenodd" d="M65 15.125H35C24.0233 15.125 15.125 24.0233 15.125 35V65C15.125 75.9767 24.0233 84.875 35 84.875H65C75.9767 84.875 84.875 75.9767 84.875 65V35C84.875 24.0233 75.9767 15.125 65 15.125ZM35 12.5C22.5736 12.5 12.5 22.5736 12.5 35V65C12.5 77.4264 22.5736 87.5 35 87.5H65C77.4264 87.5 87.5 77.4264 87.5 65V35C87.5 22.5736 77.4264 12.5 65 12.5H35Z" fill="#9B8441"/>
<path fill-rule="evenodd" clip-rule="evenodd" d="M38.0026 20H61.9974V35.2995C59.9744 36.4973 57.839 38.0218 55.8161 40.1452V25.8802H44.1839V40.1452C42.3857 38.2396 40.2504 36.6606 38.0026 35.2995V20ZM78.125 51.3612H71.7189V38.8929C68.9654 39.2196 63.5146 42.0508 60.7049 45.3176H70.0893V51.4156H21.875V39.4374H28.1687V45.3176H39.2389C35.6987 41.343 28.1687 37.9129 21.875 38.1307V27.4592H37.1597V33.5572H32.0461C41.2034 36.551 47.7771 44.0071 49.9703 51.3012C49.969 51.3123 49.967 51.3226 49.9633 51.3314C49.9558 51.3495 49.9418 51.3612 49.9157 51.3612H50.0281C50.0281 51.338 50.0281 51.3247 50.0237 51.3129C50.0217 51.3075 50.0189 51.3024 50.0147 51.2968C50.0085 51.2884 49.9991 51.2789 49.9855 51.2656C52.7476 42.9547 59.4826 36.3837 67.9539 33.5572H62.7841V27.4592H71.7189V25.7169H78.125V51.3612ZM49.9855 51.2656L49.9719 51.2523C49.9719 51.2628 49.9719 51.2734 49.9715 51.2835C49.9712 51.2896 49.9709 51.2955 49.9703 51.3012L49.9719 51.3067L49.9855 51.2656Z" fill="#FEFEFF"/>
<path fill-rule="evenodd" clip-rule="evenodd" d="M41.5428 69.5464V79.9457H38.7331V74.7188C38.7331 74.7188 39.0703 72.1598 36.2044 72.1598H21.875V69.7097H38.115C38.8455 69.7097 38.8455 68.6752 38.115 68.6752H21.875V66.2796H39.0703C41.5955 66.2796 41.5788 67.2471 41.5495 68.9451C41.5462 69.1363 41.5428 69.3369 41.5428 69.5464ZM45.4764 62.6317V79.9457H42.6667V67.8041C42.6667 67.8041 43.0039 65.2451 40.138 65.2451H21.875V62.795H42.1048C42.7791 62.795 42.7791 61.7605 42.1048 61.7605H21.875V59.3104H43.0039C45.5281 59.3594 45.5124 60.2872 45.4832 62.015C45.4799 62.2104 45.4764 62.416 45.4764 62.6317ZM49.41 79.9457H46.6565V60.8349C46.6565 60.8349 46.9936 58.276 44.1277 58.276H21.875V55.8803H46.0945C46.7689 55.8803 46.7689 54.8458 46.0945 54.8458H21.875V52.4502H46.6003C48.3423 52.7769 49.41 54.4647 49.41 56.207V79.9457ZM78.125 68.7297H61.8288C61.0983 68.7297 61.0983 69.7642 61.8288 69.7642H78.125V72.2143H63.7956C60.8735 72.2143 61.2669 74.7732 61.2669 74.7732V80.0001H58.4572V69.5464C58.4572 69.3333 58.4537 69.13 58.4504 68.9368V68.9296C58.4212 67.2024 58.4055 66.2796 60.9297 66.2796H78.125V68.7297ZM78.125 61.815H57.8952C57.2209 61.815 57.2209 62.8495 57.8952 62.8495H78.125V65.2996H59.862C56.9399 65.2996 57.3333 67.8585 57.3333 67.8585V80.0001H54.5236V62.6317C54.5236 62.4939 54.5222 62.3602 54.5203 62.2308L54.5168 62.0149C54.4876 60.2877 54.4719 59.3649 56.9961 59.3649H78.125V61.815ZM78.125 54.8458H53.9055C53.2311 54.8458 53.2311 55.8803 53.9055 55.8803H78.125V58.276H55.9284C53.0626 58.276 53.3997 60.8349 53.3997 60.8349V79.9457H50.59V56.207C50.59 54.4103 51.6577 52.7769 53.3997 52.4502H78.125V54.8458Z" fill="#9B8441"/>
</svg>
