<svg width="100" height="100" viewBox="0 0 100 100" fill="none" xmlns="http://www.w3.org/2000/svg">
<g clip-path="url(#clip0_32_2)">
<rect width="100" height="100" fill="#6F5F5E"/>
<path d="M39.4278 55.7929C39.4695 55.8451 39.5373 55.9493 39.4643 56.1004C38.7555 57.5441 33.4603 67.9156 24.1415 73.2265C23.98 73.3099 23.8809 73.2682 23.8236 73.2265C20.9675 70.0056 18.69 66.2479 17.1681 62.1357C17.1525 62.0628 17.1577 61.9325 17.3193 61.8751C20.3004 60.864 28.999 56.2412 32.5951 44.5667V44.5771C32.5951 44.5771 32.6681 44.3478 32.7723 44.3478C32.8766 44.3478 32.9443 44.551 32.9443 44.551C34.6069 49.8567 37.2336 53.531 39.407 55.7721C39.407 55.7721 39.4174 55.7825 39.4278 55.7877M60.5565 55.7929C60.5305 55.8451 60.4575 55.9493 60.5305 56.1004C61.2289 57.5441 66.5293 67.9156 75.8585 73.2265C76.0044 73.3099 76.1191 73.2682 76.166 73.2265C79.0325 70.0056 81.3048 66.2479 82.8162 62.1357C82.8371 62.0628 82.8267 61.9325 82.6703 61.8751C79.6892 60.864 71.001 56.2412 67.3997 44.5667V44.5771C67.3997 44.5771 67.3319 44.3478 67.2225 44.3478C67.1235 44.3478 67.0505 44.551 67.0505 44.551C65.3983 49.8567 62.7611 53.531 60.5878 55.7721C60.5878 55.7721 60.5878 55.7825 60.5565 55.7877M66.8629 80.4709C53.6769 67.6394 50.2215 44.7491 50.2215 44.7491C50.2215 44.7491 50.1694 44.353 49.9974 44.353C49.8254 44.353 49.7733 44.7491 49.7733 44.7491C49.7733 44.7491 46.3126 67.6394 33.1371 80.4709C33.1371 80.4709 33.0016 80.5908 33.1476 80.6794C38.0727 83.3948 43.7432 84.9583 49.7733 85H50.2267C56.2568 84.9583 61.922 83.3948 66.8576 80.6742C66.9984 80.5752 66.8681 80.4709 66.8681 80.4709M68.2544 20.1284C68.0564 20.0242 68.0512 20.2952 68.0512 20.2952C68.0668 24.4282 68.6192 47.2091 84.5518 54.1616C84.7029 54.2294 84.7446 54.1147 84.7498 54.0835C84.9062 52.7388 85 51.3785 85 50.0026C85 37.3483 78.2924 26.2836 68.2544 20.1336M31.7456 20.1284C21.7076 26.2784 15 37.3431 15 49.9974C15 51.3733 15.0938 52.7336 15.2502 54.0783C15.2606 54.1095 15.3075 54.2294 15.4482 54.1564C31.3808 47.2039 31.928 24.423 31.9488 20.29C31.9488 20.29 31.9488 20.0242 31.7508 20.1232M66.1593 18.9349C61.6041 16.5635 56.4809 15.1668 51.0293 15C50.8782 15 50.899 15.1824 50.899 15.1824C50.899 22.1298 52.0144 38.3907 57.4451 49.372C57.4868 49.4971 57.5858 49.4449 57.6327 49.4189C57.6327 49.4137 57.6484 49.4032 57.6588 49.398C58.1956 48.8195 66.6127 39.579 66.2843 19.1695C66.2739 19.034 66.1957 18.9506 66.1593 18.9349ZM33.8355 18.9349C33.7938 18.9506 33.7261 19.034 33.7157 19.1695C33.3821 39.5842 41.794 48.8247 42.3308 49.398C42.3517 49.4032 42.3517 49.4137 42.3673 49.4189C42.3933 49.4397 42.4976 49.4918 42.5393 49.372C47.97 38.3907 49.0905 22.1298 49.0905 15.1824C49.0905 15.1824 49.0958 15 48.955 15C43.5087 15.172 38.3698 16.5635 33.8303 18.9349" fill="#FFD400"/>
</g>
<defs>
<clipPath id="clip0_32_2">
<rect width="100" height="100" fill="white"/>
</clipPath>
</defs>
</svg>
