<svg width="100" height="100" viewBox="0 0 100 100" fill="none" xmlns="http://www.w3.org/2000/svg">
<rect width="100" height="100" fill="#00A76D"/>
<path d="M25.2734 84.2188C21.7578 81.5234 19.707 76.3086 19.707 76.3086C16.7188 75.1953 12.5 72.3242 12.5 72.3242C12.5 72.3242 15.2539 70.8008 17.7148 70.3906C16.8359 65.293 18.0078 58.3789 18.0078 58.3789C18.0078 58.3789 18.8281 64.6484 21.875 69.4531C25.625 68.6914 28.7891 68.3984 28.7891 68.3984C28.7891 68.3984 26.7969 71.2109 25.7422 74.3164C28.0859 76.6602 32.3633 79.0625 34.0039 79.6484C30.4297 79.4727 26.3867 78.7695 24.8633 78.1836C24.8047 80.3516 24.8633 82.6367 25.2734 84.2188ZM34.8242 54.6289C32.7734 50.293 31.4258 44.6094 31.4258 44.6094C31.4258 44.6094 26.3867 47.7148 18.7695 55.1562C23.2227 46.3672 28.4961 40.8008 28.4961 40.8008C28.4961 40.8008 26.5039 38.8086 19.3555 38.1641C26.2695 35.7031 33.8867 36.5234 33.8867 36.5234C33.8867 36.5234 37.2852 33.6523 42.9102 32.0117C42.9102 32.0117 41.4453 34.0039 40.332 37.1094C48.3594 37.9883 55.8008 42.6758 55.8008 42.6758C55.8008 42.6758 43.4375 40.7422 38.1641 42.3828C36.2891 46.8945 35.2344 51.7578 34.8242 54.6289ZM52.7539 79.5898C52.8125 80.9961 53.3398 82.4023 53.3398 82.4023C53.3398 82.4023 52.2266 82.5195 49.1797 82.6367C44.8438 85.1562 39.5117 86.0938 39.5117 86.0938C39.5117 86.0938 42.9102 83.8672 44.6094 82.1094C41.9141 81.6992 39.5117 80.4688 39.5117 80.4688C39.5117 80.4688 44.082 80.1758 47.4219 79.3555C49.0039 77.7734 51.9336 73.6133 51.9336 73.6133C51.9336 73.6133 52.1094 75.957 52.4023 77.4805C56.2695 75.6055 59.4922 73.2031 59.4922 73.2031C59.4922 73.2031 56.6211 76.7188 52.7539 79.5898ZM83.2812 24.3945C83.6328 31.0156 82.2266 38.9258 79.8828 45.1367C79.8828 41.0352 79.4727 33.5352 77.0117 28.4375C75.0781 29.7852 70.0977 32.2461 63.125 35.8203C64.1797 34.7656 68.8086 29.2578 70.1562 26.9141C65.293 26.9727 56.9141 27.5586 49.9414 29.1406C54.5703 26.5625 63.6523 23.5742 71.0352 22.2852C67.8125 19.5313 61.7773 16.1914 57.1484 13.9062C60.8984 14.0234 75.1953 16.7188 80.0586 20.4688C83.2812 19.707 87.5 19.5898 87.5 19.5898C86.5039 21.6406 85.1562 23.1641 83.2812 24.3945ZM25.2734 84.2188C21.7578 81.5234 19.707 76.3086 19.707 76.3086C16.7188 75.1953 12.5 72.3242 12.5 72.3242C12.5 72.3242 15.2539 70.8008 17.7148 70.3906C16.8359 65.293 18.0078 58.3789 18.0078 58.3789C18.0078 58.3789 18.8281 64.6484 21.875 69.4531C25.625 68.6914 28.7891 68.3984 28.7891 68.3984C28.7891 68.3984 26.7969 71.2109 25.7422 74.3164C28.0859 76.6602 32.3633 79.0625 34.0039 79.6484C30.4297 79.4727 26.3867 78.7695 24.8633 78.1836C24.8047 80.3516 24.8633 82.6367 25.2734 84.2188ZM34.8242 54.6289C32.7734 50.293 31.4258 44.6094 31.4258 44.6094C31.4258 44.6094 26.3867 47.7148 18.7695 55.1562C23.2227 46.3672 28.4961 40.8008 28.4961 40.8008C28.4961 40.8008 26.5039 38.8086 19.3555 38.1641C26.2695 35.7031 33.8867 36.5234 33.8867 36.5234C33.8867 36.5234 37.2852 33.6523 42.9102 32.0117C42.9102 32.0117 41.4453 34.0039 40.332 37.1094C48.3594 37.9883 55.8008 42.6758 55.8008 42.6758C55.8008 42.6758 43.4375 40.7422 38.1641 42.3828C36.2891 46.8945 35.2344 51.7578 34.8242 54.6289ZM52.7539 79.5898C52.8125 80.9961 53.3398 82.4023 53.3398 82.4023C53.3398 82.4023 52.2266 82.5195 49.1797 82.6367C44.8438 85.1562 39.5117 86.0938 39.5117 86.0938C39.5117 86.0938 42.9102 83.8672 44.6094 82.1094C41.9141 81.6992 39.5117 80.4688 39.5117 80.4688C39.5117 80.4688 44.082 80.1758 47.4219 79.3555C49.0039 77.7734 51.9336 73.6133 51.9336 73.6133C51.9336 73.6133 52.1094 75.957 52.4023 77.4805C56.2695 75.6055 59.4922 73.2031 59.4922 73.2031C59.4922 73.2031 56.6211 76.7188 52.7539 79.5898ZM83.2812 24.3945C83.6328 31.0156 82.2266 38.9258 79.8828 45.1367C79.8828 41.0352 79.4727 33.5352 77.0117 28.4375C75.0781 29.7852 70.0977 32.2461 63.125 35.8203C64.1797 34.7656 68.8086 29.2578 70.1562 26.9141C65.293 26.9727 56.9141 27.5586 49.9414 29.1406C54.5703 26.5625 63.6523 23.5742 71.0352 22.2852C67.8125 19.5313 61.7773 16.1914 57.1484 13.9062C60.8984 14.0234 75.1953 16.7188 80.0586 20.4688C83.2812 19.707 87.5 19.5898 87.5 19.5898C86.5039 21.6406 85.1562 23.1641 83.2812 24.3945Z" fill="white"/>
</svg>
