<svg width="100" height="100" viewBox="0 0 100 100" fill="none" xmlns="http://www.w3.org/2000/svg">
<rect width="100" height="100" fill="white"/>
<g clip-path="url(#clip0_24_2)">
<mask id="mask0_24_2" style="mask-type:luminance" maskUnits="userSpaceOnUse" x="22" y="23" width="195" height="55">
<path d="M216.178 23H22V77.9922H216.178V23Z" fill="white"/>
</mask>
<g mask="url(#mask0_24_2)">
<path fill-rule="evenodd" clip-rule="evenodd" d="M52.7161 55.7938L42.8635 55.7909C42.8635 55.7909 42.5654 55.7579 42.4149 55.4967C42.2673 55.2413 42.3062 55.1054 42.3062 55.1054V45.9218C42.3062 45.9218 42.2945 45.5955 42.4693 45.4004C42.6373 45.213 42.946 45.2043 42.946 45.2043H55.9278C55.9278 45.2043 56.1356 45.1722 56.3744 45.3052C56.5812 45.4169 56.6948 45.848 56.6948 45.848V55.2724C56.6948 55.2724 56.5812 55.5346 56.4676 55.6268C56.3657 55.7142 56.1521 55.788 56.1521 55.788L52.7161 55.7938ZM52.6403 39.2974V29.138C63.0735 30.6564 71.0882 39.6391 71.0882 50.4927C71.0882 61.3453 63.092 70.3406 52.6598 71.864L52.6423 61.6347H56.6909C60.0706 61.6347 62.5531 59.1016 62.5531 55.7229V45.1373C62.5531 41.7596 59.8618 39.2925 56.4822 39.2925L52.6403 39.2974ZM36.3265 45.1373C36.3265 41.7596 38.3818 39.276 41.7586 39.276L46.2567 39.2624V29.1622C35.876 30.7283 27.9137 39.676 27.9137 50.4927C27.9137 61.3114 35.8769 70.2824 46.2567 71.8465L46.2402 61.7085L42.478 61.7055C39.0974 61.7055 36.3265 59.1006 36.3265 55.7229V45.1373ZM22 50.4927C22 35.309 34.3138 23 49.5005 23C64.6891 23 77 35.3099 77 50.4927C77 65.6833 64.6881 77.9913 49.5005 77.9913C34.3138 77.9913 22 65.6843 22 50.4927Z" fill="#B10A32"/>
</g>
</g>
<defs>
<clipPath id="clip0_24_2">
<rect width="55" height="54.9913" fill="white" transform="translate(22 23)"/>
</clipPath>
</defs>
</svg>
