<svg width="100" height="100" viewBox="0 0 100 100" fill="none" xmlns="http://www.w3.org/2000/svg">
<rect width="100" height="100" fill="white"/>
<g clip-path="url(#clip0_24_2)">
<mask id="mask0_24_2" style="mask-type:luminance" maskUnits="userSpaceOnUse" x="15" y="15" width="248" height="70">
<path d="M262.136 15H15V84.9901H262.136V15Z" fill="white"/>
</mask>
<g mask="url(#mask0_24_2)">
<path fill-rule="evenodd" clip-rule="evenodd" d="M54.0932 56.7375L41.5535 56.7338C41.5535 56.7338 41.1742 56.6918 40.9826 56.3594C40.7948 56.0344 40.8442 55.8615 40.8442 55.8615V44.1732C40.8442 44.1732 40.8294 43.758 41.0518 43.5096C41.2656 43.2711 41.6585 43.26 41.6585 43.26H58.1808C58.1808 43.26 58.4453 43.2192 58.7492 43.3885C59.0124 43.5306 59.157 44.0792 59.157 44.0792V56.074C59.157 56.074 59.0124 56.4076 58.8679 56.525C58.7381 56.6362 58.4663 56.7301 58.4663 56.7301L54.0932 56.7375ZM53.9968 35.7421V22.812C67.2754 24.7446 77.476 36.1771 77.476 49.9907C77.476 63.8032 67.2989 75.2517 54.0215 77.1905L53.9993 64.1714H59.1521C63.4535 64.1714 66.6131 60.9475 66.6131 56.6473V43.1747C66.6131 38.8758 63.1878 35.7359 58.8864 35.7359L53.9968 35.7421ZM33.2337 43.1747C33.2337 38.8758 35.8496 35.7149 40.1473 35.7149L45.8722 35.6976V22.8429C32.6603 24.836 22.5265 36.224 22.5265 49.9907C22.5265 63.7599 32.6616 75.1776 45.8722 77.1683L45.8512 64.2653L41.0629 64.2616C36.7603 64.2616 33.2337 60.9463 33.2337 56.6473V43.1747ZM15 49.9907C15 30.6659 30.6721 15 50.0006 15C69.3316 15 85 30.6672 85 49.9907C85 69.3242 69.3304 84.9889 50.0006 84.9889C30.6721 84.9889 15 69.3254 15 49.9907Z" fill="#B10A32"/>
</g>
</g>
<defs>
<clipPath id="clip0_24_2">
<rect width="70" height="69.9889" fill="white" transform="translate(15 15)"/>
</clipPath>
</defs>
</svg>
