<svg width="100" height="100" viewBox="0 0 100 100" fill="none" xmlns="http://www.w3.org/2000/svg">
<rect width="100" height="100" fill="white"/>
<path fill-rule="evenodd" clip-rule="evenodd" d="M87.2147 38.2065C81.6205 30.28 72.3321 25.5583 62.8725 25.5583C53.4129 25.5583 44.1327 30.28 38.5466 38.2065L38.2612 38.6142H45.307L45.3804 38.5327C50.1754 33.5827 56.4384 30.9732 62.8725 30.9732C69.3067 30.9732 75.5696 33.5909 80.3728 38.5327L80.4543 38.6142H87.5001L87.2147 38.2065Z" fill="#E04245"/>
<path fill-rule="evenodd" clip-rule="evenodd" d="M35.3662 64.5547L35.2275 64.6852C33.0583 66.8951 30.5548 68.0613 27.9697 68.0613C22.5875 68.0613 18.6732 64.0165 18.6732 58.4386C18.6732 52.8607 22.5875 48.8159 27.9697 48.8159C30.5548 48.8159 33.0583 49.9902 35.2275 52.2001L35.3662 52.3306L38.832 48.139L38.7341 48.0248C35.8554 44.6161 32.3896 42.9607 28.141 42.9607C23.8923 42.9607 19.978 44.4041 17.1646 46.981C14.1065 49.7863 12.5 53.7414 12.5 58.4304C12.5 63.1194 14.1065 67.0745 17.1646 69.8798C19.978 72.4812 23.876 73.9083 28.141 73.9083C32.406 73.9083 35.8554 72.2529 38.7341 68.836L38.832 68.7381L35.3662 64.5465V64.5547Z" fill="#1F4889"/>
<path d="M48.4548 43.45H42.3306V73.3456H48.4548V43.45Z" fill="#1F4889"/>
<path fill-rule="evenodd" clip-rule="evenodd" d="M72.4459 66.8461C70.8067 67.841 69.2899 68.3385 67.9281 68.3385C65.9546 68.3385 65.0494 67.2947 65.0494 64.9705V49.1094H71.296V43.4825H65.0494V34.186L59.0475 37.399V43.4825H53.8691V49.1094H59.0475V65.9817C59.0475 70.5729 61.7712 73.7207 65.8404 73.8022C68.5968 73.8593 70.2604 73.0357 71.2716 72.4322L71.3368 72.3914L72.8047 66.626L72.4459 66.8461Z" fill="#1F4889"/>
<path d="M83.6432 43.45H77.5107V73.3456H83.6432V43.45Z" fill="#1F4889"/>
</svg>
