<svg width="100" height="100" viewBox="0 0 100 100" fill="none" xmlns="http://www.w3.org/2000/svg">
<g clip-path="url(#clip0_18_2)">
<rect width="100" height="100" fill="white"/>
<path d="M76.6709 34.7156L76.1353 36.7193L75.9014 37.5834L72.5846 49.9552L72.2433 51.2314L69.4096 61.8097L69.2967 62.2324L68.7084 64.4279L67.1354 70.2947C65.8616 71.3557 64.1099 71.8022 62.3872 71.34C60.6357 70.8699 59.3251 69.5726 58.771 67.9786L57.3633 62.7551L58.2958 59.2834L61.2448 48.2824L65.0975 33.9094L72.871 31.8268C74.5043 31.5038 76.1326 32.4965 76.5686 34.1273C76.6211 34.3269 76.6552 34.5265 76.6684 34.7287" fill="#00DDD1"/>
<path d="M43.5843 55.3439L28.0347 51.179C25.1092 50.3963 22.9846 48.1142 22.2677 45.383C21.9236 44.083 21.9 42.6807 22.2624 41.2887V41.2836C22.2677 41.2598 23.7751 35.6504 23.7751 35.6504V35.6452C23.7908 35.5953 23.804 35.548 23.8197 35.4955C23.8355 35.4456 23.8512 35.3957 23.8696 35.3458C23.9064 35.2486 23.9431 35.1515 23.9852 35.0569C24.0062 35.0096 24.0272 34.9597 24.0508 34.9151C24.0718 34.8678 24.0955 34.8232 24.1191 34.7759C24.1585 34.6945 24.2031 34.6157 24.2504 34.5343C24.3344 34.3899 24.4264 34.2481 24.5235 34.1167C24.5524 34.0747 24.5839 34.0353 24.6154 33.9959C24.6864 33.904 24.7599 33.8147 24.8387 33.7281C24.8938 33.6624 24.9542 33.5994 25.0146 33.539C25.0776 33.476 25.1433 33.4129 25.2089 33.3525C25.771 32.8457 26.4511 32.4701 27.2075 32.2679L28.7017 31.8687C27.6408 33.1424 27.197 34.8915 27.6592 36.6142C28.0925 38.2294 29.2296 39.4689 30.6556 40.0887L36.3465 41.6119L37.1632 41.8298C37.2184 41.8429 37.2735 41.8586 37.3287 41.8745C38.1664 42.1055 38.9569 42.552 39.6134 43.2086C40.2832 43.8782 40.7295 44.6818 40.9607 45.5326C40.9712 45.5721 40.9818 45.614 40.9921 45.6535L43.5895 55.3387L43.5843 55.3439Z" fill="#00DDD1"/>
<path fill-rule="evenodd" clip-rule="evenodd" d="M76.6652 34.7288C76.6522 34.5266 76.6181 34.3296 76.5654 34.1274C76.1269 32.4965 74.5013 31.5038 72.8678 31.8269L65.0944 33.9094L36.3379 41.612L30.647 40.0887C29.221 39.469 28.0839 38.2295 27.6506 36.6144C27.1884 34.8916 27.6348 33.1426 28.6932 31.8689L64.7084 22.223C66.9537 21.619 69.3514 22.2624 70.9954 23.9064L75.0974 28.0084C75.8827 28.7936 76.4394 29.7469 76.7388 30.779C77.0671 31.9109 77.0933 33.1268 76.7755 34.3033L76.66 34.7288H76.6652Z" fill="#1976D2"/>
<path fill-rule="evenodd" clip-rule="evenodd" d="M63.3586 75.2216L60.8821 75.8859L57.7386 76.7291C57.6992 76.7394 57.6597 76.75 57.6178 76.7578C56.2574 77.1018 54.8865 77.0809 53.6129 76.7526C50.8607 76.0462 48.5602 73.9164 47.7724 70.9751L43.5837 55.3441L40.9863 45.6588C40.9758 45.6195 40.9653 45.5774 40.9547 45.5381C40.7237 44.6873 40.2772 43.8836 39.6076 43.2139C38.9379 42.5443 38.158 42.111 37.3228 41.8798L40.1801 42.6441L44.718 43.8625C49.7734 45.215 53.7206 49.1622 55.0756 54.2176L56.2915 58.753L57.3657 62.7605L58.8101 68.1494L58.7733 67.9839C59.33 69.578 60.6379 70.8753 62.3895 71.3453C64.1123 71.8075 65.864 71.3611 67.1376 70.3001L66.7359 71.7945C66.5336 72.5482 66.158 73.2309 65.6512 73.7929C65.0472 74.4652 64.2567 74.9695 63.3586 75.2241V75.2216Z" fill="#1976D2"/>
</g>
<defs>
<clipPath id="clip0_18_2">
<rect width="100" height="100" fill="white"/>
</clipPath>
</defs>
</svg>
