<svg width="143" height="35" viewBox="0 0 143 35" fill="none" xmlns="http://www.w3.org/2000/svg">
<g clip-path="url(#clip0_3428_8878)">
<path d="M142.002 30.0003H138.018C137.689 30.0003 137.38 29.8382 137.194 29.5675L131.453 21.2123L125.711 29.5675C125.524 29.8382 125.216 30.0003 124.887 30.0003H120.903C120.501 30.0003 120.263 29.5491 120.491 29.2166L128.722 17.2386L120.848 5.78189C120.621 5.44935 120.858 4.99817 121.261 4.99817H125.245C125.574 4.99817 125.883 5.16026 126.069 5.43097L131.453 13.2648L136.837 5.43097C137.024 5.16026 137.331 4.99817 137.661 4.99817H142.025C142.268 4.99817 142.41 5.26888 142.273 5.46773L134.183 17.2369L142.415 29.2149C142.642 29.5475 142.405 29.9986 142.002 29.9986V30.0003Z" fill="#252A36"/>
<path d="M100.327 23.6903L97.6935 26.3239C97.493 26.5227 97.498 26.8503 97.7052 27.0424C100.021 29.183 103.116 30.4881 106.517 30.4881C110.103 30.4881 113.35 29.0343 115.699 26.6848C118.048 24.3354 119.502 21.0885 119.502 17.5025C119.502 13.9164 118.048 10.6679 115.699 8.3184C113.35 5.96891 110.103 4.51511 106.517 4.51511C103.114 4.51511 100.02 5.82186 97.7052 7.9608C97.498 8.15297 97.4946 8.47882 97.6935 8.67935L100.327 11.3129C100.521 11.5068 100.837 11.5101 101.031 11.3163C102.463 9.88083 104.393 9.00186 106.517 9.00186C108.813 9.00186 110.883 10.0295 112.342 11.6772C113.69 13.1978 114.518 15.2482 114.518 17.5025C114.518 19.7567 113.692 21.8071 112.342 23.3277C110.883 24.9754 108.813 26.0031 106.517 26.0031C104.393 26.0031 102.463 25.1241 101.031 23.6887C100.837 23.4948 100.521 23.4982 100.327 23.692V23.6903Z" fill="#252A36"/>
<path d="M92.0035 4.99979H88.0031C87.7271 4.99979 87.5034 5.22348 87.5034 5.49943V29.5006C87.5034 29.7766 87.7271 30.0003 88.0031 30.0003H92.0035C92.2795 30.0003 92.5032 29.7766 92.5032 29.5006V5.49943C92.5032 5.22348 92.2795 4.99979 92.0035 4.99979Z" fill="#252A36"/>
<path d="M72.5042 5.49943V26.0048H82.004C82.2798 26.0048 82.5037 26.2287 82.5037 26.5044V29.5006C82.5037 29.7763 82.2798 30.0003 82.004 30.0003H68.5037C67.9522 30.0003 67.5044 29.5524 67.5044 29.001V5.49943C67.5044 5.22371 67.7266 4.99979 68.004 4.99979H72.0045C72.2802 4.99979 72.5042 5.22371 72.5042 5.49943Z" fill="#252A36"/>
<path d="M52.9896 25.9998C50.6936 25.9998 48.6231 24.9721 47.1643 23.3244C45.8158 21.8038 44.9886 19.7534 44.9886 17.4992C44.9886 15.245 45.8141 13.1946 47.1643 11.6739C48.6231 10.0263 50.6936 8.99859 52.9896 8.99859C55.1135 8.99859 57.0435 9.87756 58.4756 11.313C58.6695 11.5068 58.9853 11.5035 59.1791 11.3096L61.8127 8.67608C62.0132 8.47556 62.0082 8.1497 61.801 7.95753C59.4849 5.8186 56.3902 4.51184 52.9896 4.51184C49.4035 4.51184 46.1567 5.96565 43.8072 8.31514C41.4577 10.6646 40.0039 13.9131 40.0039 17.4992C40.0039 21.0852 41.4577 24.3321 43.8072 26.6816C46.1567 29.0327 49.4035 30.4849 52.9896 30.4849C56.3918 30.4849 59.4866 29.1781 61.801 27.0392C62.0082 26.847 62.0115 26.5212 61.8127 26.3206L59.1791 23.6871C58.9853 23.4932 58.6695 23.4899 58.4756 23.6837C57.0435 25.1191 55.1135 25.9981 52.9896 25.9981V25.9998Z" fill="#252A36"/>
<path d="M34.7879 8.09116L34.4471 9.36616L34.2983 9.91594L32.1878 17.7882L31.9706 18.6003L30.1675 25.3313L30.0957 25.6003L29.7213 26.9973L28.7204 30.7304C27.9099 31.4055 26.7953 31.6896 25.6991 31.3955C24.5846 31.0964 23.7507 30.2709 23.3981 29.2566L22.5024 25.9329L23.0957 23.7238L24.9722 16.7238L27.4237 7.57815L32.37 6.25301C33.4093 6.04747 34.4454 6.67913 34.7228 7.71684C34.7562 7.84384 34.7779 7.97084 34.7863 8.09951" fill="#00DDD1"/>
<path d="M13.7347 21.2171L3.84041 18.5669C1.97887 18.0689 0.626991 16.6168 0.170796 14.8789C-0.0481104 14.0517 -0.0631498 13.1594 0.167454 12.2737V12.2704C0.170796 12.2553 1.12998 8.686 1.12998 8.686V8.68265C1.14 8.6509 1.14836 8.62082 1.15838 8.5874C1.16841 8.55565 1.17844 8.5239 1.19013 8.49215C1.21353 8.43033 1.23692 8.3685 1.26366 8.30834C1.27703 8.27826 1.2904 8.24651 1.30543 8.2181C1.3188 8.18802 1.33384 8.15962 1.34888 8.12954C1.37395 8.07774 1.40236 8.0276 1.43243 7.9758C1.48591 7.88389 1.54439 7.79366 1.60622 7.71011C1.6246 7.68337 1.64466 7.6583 1.66471 7.63324C1.70983 7.57475 1.75662 7.51794 1.80675 7.46279C1.84184 7.42102 1.88027 7.38091 1.91871 7.34248C1.95881 7.30237 2.00059 7.26227 2.04236 7.22383C2.39997 6.90132 2.83277 6.66236 3.31403 6.53369L4.26485 6.27969C3.58975 7.09015 3.30734 8.20306 3.60145 9.29927C3.87717 10.327 4.60073 11.1157 5.50811 11.5101L9.12926 12.4793L9.64895 12.618C9.68405 12.6263 9.71914 12.6363 9.75423 12.6464C10.2873 12.7934 10.7903 13.0775 11.208 13.4953C11.6342 13.9214 11.9182 14.4327 12.0653 14.9741C12.072 14.9992 12.0787 15.0259 12.0853 15.051L13.738 21.2138L13.7347 21.2171Z" fill="#00DDD1"/>
<path fill-rule="evenodd" clip-rule="evenodd" d="M34.7843 8.09955C34.776 7.97088 34.7543 7.84555 34.7208 7.71688C34.4418 6.67916 33.4074 6.04751 32.368 6.25305L27.4217 7.57818L9.1238 12.4794L5.50265 11.5101C4.59527 11.1158 3.87171 10.3271 3.59599 9.29936C3.30188 8.20316 3.58596 7.09024 4.25939 6.27978L27.1761 0.142042C28.6048 -0.242298 30.1305 0.167108 31.1766 1.21318L33.7867 3.82335C34.2864 4.32299 34.6406 4.92958 34.8311 5.5863C35.04 6.30652 35.0567 7.08021 34.8545 7.82884L34.781 8.09955H34.7843Z" fill="#1976D2"/>
<path fill-rule="evenodd" clip-rule="evenodd" d="M26.3172 33.8654L24.7414 34.2881L22.7412 34.8246C22.7161 34.8312 22.691 34.8379 22.6643 34.8429C21.7987 35.0618 20.9264 35.0485 20.116 34.8396C18.3647 34.3901 16.9009 33.0349 16.3996 31.1633L13.7343 21.2172L12.0816 15.0544C12.0749 15.0294 12.0682 15.0026 12.0615 14.9776C11.9145 14.4362 11.6304 13.9248 11.2043 13.4987C10.7782 13.0726 10.2819 12.7969 9.75049 12.6498L11.5686 13.1361L14.4561 13.9114C17.6729 14.772 20.1845 17.2836 21.0467 20.5004L21.8204 23.3863L22.5039 25.9363L23.423 29.3653L23.3996 29.26C23.7538 30.2743 24.586 31.0998 25.7006 31.3989C26.7968 31.693 27.9114 31.4089 28.7218 30.7338L28.4662 31.6847C28.3375 32.1643 28.0985 32.5987 27.776 32.9563C27.3917 33.3841 26.8887 33.705 26.3172 33.867V33.8654Z" fill="#1976D2"/>
</g>
<defs>
<clipPath id="clip0_3428_8878">
<rect width="142.503" height="35" fill="white"/>
</clipPath>
</defs>
</svg>
