<svg width="100" height="100" viewBox="0 0 100 100" fill="none" xmlns="http://www.w3.org/2000/svg">
<rect width="100" height="100" fill="#F37D32"/>
<path d="M16.3464 66.5778C16.3464 63.0036 16.405 59.488 16.3464 55.9138C16.3464 54.7419 16.7566 54.4489 17.8113 54.4489C19.8034 54.5075 21.7956 54.4489 23.7878 54.5075C24.9597 54.5661 25.2527 54.0974 25.2527 52.9841C25.1941 50.7575 25.1941 48.531 25.2527 46.3044C25.2527 45.3083 24.9597 44.8395 23.905 44.8981C21.7956 44.9567 19.7448 44.8981 17.6355 44.9567C16.698 44.9567 16.405 44.6638 16.405 43.7263C16.4636 39.5661 16.4636 35.406 16.405 31.1872C16.405 30.1911 16.9323 29.781 17.6355 29.3122C26.2488 24.2731 34.9206 19.2927 43.5339 14.2536C43.7097 14.1364 43.8855 14.0778 44.0027 13.9606C46.5222 11.6169 48.6902 12.2614 51.4441 14.0778C61.5808 20.6989 71.9519 27.0856 82.2058 33.4724C83.2019 34.1169 83.612 34.7614 83.612 35.9919C83.5534 42.32 83.5534 48.7067 83.612 55.0349C83.612 56.2067 83.2605 56.6169 82.0886 56.5583C79.9792 56.4997 77.9284 56.5583 75.8191 56.4997C74.8816 56.4997 74.4128 56.7341 74.4714 57.7888C74.53 60.1325 74.53 62.4177 74.4714 64.7614C74.4714 65.7575 74.823 66.1091 75.8191 66.1091C77.9284 66.0505 79.9792 66.1091 82.0886 66.1091C82.9675 66.1091 83.3777 66.3435 83.3191 67.3395C83.2605 70.6208 83.2605 73.902 83.3191 77.1833C83.3191 78.2966 82.8503 78.6481 81.9128 78.9411C73.3581 81.6364 64.8034 84.3317 56.2488 87.1442C54.3738 87.7302 52.9089 87.613 51.1511 86.9099C44.5886 84.2731 38.0261 81.7536 31.4636 79.1755C30.7605 78.8825 29.9988 78.7653 29.237 78.7653C25.4284 78.7067 21.6198 78.7067 17.8698 78.7653C16.5222 78.8239 16.1706 78.2966 16.2292 77.0661C16.405 73.5505 16.3464 70.0349 16.3464 66.5778ZM21.6198 36.3435C22.2644 36.1677 22.7917 36.0505 23.3191 35.8747C29.823 33.7067 36.3269 31.5974 42.8308 29.3122C44.3542 28.7849 45.5261 28.9606 46.8152 29.8395C50.5652 32.5349 54.4323 35.113 58.2995 37.6911C59.5886 38.57 59.8816 39.6833 59.0613 41.0895C58.1238 42.7302 57.0691 43.0817 55.5456 42.2028C53.9636 41.2653 52.4402 40.2106 50.8581 39.2145C49.1003 38.1013 47.8698 38.4528 46.5808 40.3278C45.4089 42.027 45.5847 43.2575 47.2839 44.4294C51.2683 47.2419 55.3113 49.9958 59.3542 52.6911C59.8816 53.0427 60.6433 53.277 61.3464 53.277C66.5613 53.3356 71.7761 53.277 76.9909 53.3356C78.1042 53.3356 78.573 53.1013 78.573 51.8708C78.5144 47.3005 78.5144 42.6716 78.573 38.1013C78.573 37.2224 78.28 36.7536 77.5769 36.2849C67.7917 30.4841 57.948 24.6247 48.1628 18.7653C47.2253 18.1794 46.4636 18.238 45.5847 18.7653C38.2019 23.1013 30.8191 27.4372 23.4363 31.7731C21.0925 33.0036 20.9167 33.4724 21.6198 36.3435ZM61.5222 69.9177C56.2488 69.9177 50.9753 69.9177 45.7019 69.9177C44.0027 69.9177 43.1238 68.863 43.1238 67.0466C43.1823 65.3474 43.8269 64.7028 45.5847 64.7028C48.1042 64.7028 50.6238 64.7614 53.1433 64.6442C55.0183 64.5856 55.8972 63.531 55.8972 61.5974C55.8972 59.8981 54.6081 58.5505 52.9675 58.5505C42.8894 58.5505 32.7527 58.5505 22.6745 58.5505C21.6784 58.5505 21.3269 58.8435 21.3269 59.8396C21.3855 64.2341 21.3855 68.6872 21.3269 73.0817C21.3269 74.1364 21.6784 74.488 22.7331 74.488C26.073 74.4294 29.4714 74.4294 32.8113 74.488C33.573 74.488 34.3347 74.6052 35.0378 74.8981C40.78 77.1247 46.5222 79.3513 52.2058 81.6364C53.3777 82.1052 54.3152 82.1052 55.487 81.7536C62.6355 79.3513 69.8425 77.0075 77.0495 74.6638C78.3386 74.2536 78.9831 73.6677 78.7488 72.2614C78.6902 71.9685 78.6902 71.6755 78.7488 71.3825C78.8659 70.2692 78.4558 69.9177 77.3425 69.9177C72.0105 69.9763 66.737 69.9177 61.5222 69.9177Z" fill="white"/>
</svg>
