<svg width="100" height="100" viewBox="0 0 100 100" fill="none" xmlns="http://www.w3.org/2000/svg">
<rect width="100" height="100" fill="white"/>
<path d="M48.2398 12.5H51.814C61.0718 13.0273 70.1539 16.9531 76.6578 23.6328C82.5757 29.6094 86.3843 37.5781 87.2632 45.8984C88.1422 53.9258 86.3843 62.1875 82.2242 69.1602C77.8882 76.4844 71.0328 82.2266 63.064 85.1562C54.8023 88.2617 45.4859 88.2617 37.2242 85.2734C28.9039 82.2852 21.6968 76.1914 17.3609 68.3984C13.2593 61.3086 11.7359 52.8125 12.8492 44.668C14.1382 35.3516 19.1773 26.6211 26.5601 20.7031C32.6539 15.7813 40.3882 12.9102 48.2398 12.5ZM45.7789 18.5938C35.7593 19.8242 26.6187 26.2695 21.9312 35.2344C18.1812 42.2656 17.3023 50.7031 19.4117 58.3203C21.5211 66.0547 26.6773 72.9102 33.5328 77.0703C39.9195 80.9961 47.7125 82.4609 55.0953 81.2305C64.0601 79.8828 72.2047 74.375 76.9507 66.6992C80.8765 60.3711 82.4586 52.6953 81.3453 45.3125C80.1734 37.1094 75.5445 29.4922 68.9234 24.6289C62.3609 19.6484 53.8648 17.4805 45.7789 18.5938ZM29.9 47.1289C33.7086 47.1289 37.5757 47.1289 41.3843 47.1289C41.3843 49.0625 41.3843 50.9375 41.3843 52.8711C37.5757 52.8711 33.7086 52.8711 29.9 52.8711C29.9 58.6719 29.9 64.4141 29.9 70.2148C36.1695 70.2148 42.3804 70.2148 48.65 70.2148C48.65 68.2812 48.65 66.3477 48.65 64.4141C44.314 64.4141 40.0367 64.4141 35.7007 64.4141C35.7007 62.4805 35.7007 60.5469 35.7007 58.6133C39.5093 58.6133 43.3765 58.6133 47.1851 58.6133C47.1851 52.8711 47.1851 47.0703 47.1851 41.3281C43.3765 41.3281 39.5093 41.3281 35.7007 41.3281C35.7007 39.3945 35.7007 37.4609 35.7007 35.5859C40.0367 35.5859 44.314 35.5859 48.65 35.5859C48.65 33.6523 48.65 31.7188 48.65 29.7852C42.3804 29.7852 36.1695 29.7852 29.9 29.7852C29.9 35.5859 29.9 41.3281 29.9 47.1289ZM51.5211 29.8438C51.5211 31.7773 51.5211 33.6523 51.5211 35.5859C55.857 35.5859 60.1343 35.5859 64.4703 35.5859C64.4703 37.5195 64.4703 39.4531 64.4703 41.3867C60.6617 41.3867 56.7945 41.3867 52.9859 41.3867C52.9859 47.1875 52.9859 52.9297 52.9859 58.7305C56.7945 58.7305 60.6617 58.7305 64.4703 58.7305C64.4703 60.6641 64.4703 62.5391 64.4703 64.4727C60.1343 64.4727 55.857 64.4727 51.5211 64.4727C51.5211 66.4062 51.5211 68.3398 51.5211 70.2734C57.732 70.2734 64.0015 70.2734 70.2125 70.2734C70.2125 64.5312 70.2125 58.7305 70.2125 52.9883C66.4039 52.9883 62.5367 52.9883 58.7281 52.9883C58.7281 51.0547 58.7281 49.1211 58.7281 47.1875C62.5367 47.1875 66.4039 47.1875 70.2125 47.1875C70.2125 41.4453 70.2125 35.6445 70.2125 29.9023C64.0015 29.8438 57.732 29.8438 51.5211 29.8438Z" fill="#C3282B"/>
</svg>
