<svg width="100" height="100" viewBox="0 0 100 100" fill="none" xmlns="http://www.w3.org/2000/svg">
<rect width="100" height="100" fill="#013CC8"/>
<path d="M50.0093 14.9998C55.8499 20.5211 61.6921 26.0394 67.5343 31.5576C67.0032 32.1043 66.4612 32.6401 65.9239 33.1789C60.6299 28.1794 55.3344 23.1798 50.0451 18.174C44.8804 23.3573 39.6581 28.4815 34.4904 33.6618C33.939 33.1307 33.3736 32.612 32.8223 32.0778C37.272 27.6389 41.7483 23.2281 46.1919 18.7814C47.4986 17.5572 48.7462 16.2692 50.0093 14.9998Z" fill="white"/>
<path d="M35.7246 34.6337C40.5248 29.8584 45.3733 25.1329 50.1782 20.3639C55.0781 24.9694 59.9609 29.5936 64.8592 34.1992C64.3204 34.738 63.7799 35.2769 63.2426 35.819C58.908 31.7196 54.5735 27.6203 50.2156 23.5474C45.9496 27.7651 41.6649 31.961 37.4083 36.1881C36.8367 35.6803 36.2838 35.1523 35.7246 34.6337Z" fill="white"/>
<path d="M38.4941 37.275C42.3614 33.4467 46.2739 29.6635 50.1302 25.8227C54.0832 29.4828 58.0003 33.1788 61.9439 36.8467C61.4034 37.3856 60.863 37.9245 60.3241 38.4665C56.9505 35.3094 53.5614 32.1711 50.191 29.0109C46.8361 32.2754 43.5046 35.5664 40.1638 38.8465C39.6031 38.3279 39.0564 37.7921 38.4941 37.275Z" fill="white"/>
<path d="M62.3898 38.093C64.4005 36.1788 66.3302 34.1806 68.302 32.2259C74.1318 37.7597 79.9786 43.2733 85.8224 48.7915C85.2866 49.3257 84.7493 49.8584 84.2213 50.4004C78.9195 45.4273 73.6411 40.4277 68.3674 35.425C63.1342 40.5461 57.9758 45.7434 52.7675 50.891C52.2239 50.3521 51.6617 49.835 51.1025 49.3132C54.8701 45.5784 58.6393 41.845 62.3898 38.093Z" fill="white"/>
<path d="M23.3959 40.6909C26.0047 38.0463 28.6712 35.464 31.294 32.8333C37.1269 38.3609 42.9831 43.8682 48.8143 49.3989C48.2786 49.9363 47.7428 50.4721 47.2054 51.0078C41.9146 46.0129 36.6191 41.0196 31.3407 36.0106C28.2351 39.0852 25.1201 42.1488 22.0393 45.2482C19.9071 47.2901 17.8808 49.4394 15.7392 51.472C15.1957 50.944 14.6365 50.4362 14.0898 49.9129C15.8934 48.0828 17.7484 46.3042 19.5582 44.4803C20.8323 43.2125 22.0861 41.9214 23.3959 40.6909Z" fill="white"/>
<path d="M54.0098 51.8472C58.824 47.1062 63.6336 42.3589 68.4556 37.6257C68.9353 37.9496 69.3122 38.4044 69.7436 38.7876C74.2137 42.9959 78.6666 47.223 83.1537 51.4127C82.6133 51.9578 82.0697 52.4998 81.5261 53.0434C77.2041 48.9394 72.8477 44.8712 68.5257 40.7672C64.2457 44.9818 59.9579 49.1901 55.6919 53.4219C55.1187 52.911 54.5689 52.3737 54.0098 51.8472Z" fill="white"/>
<path d="M31.4625 38.1819C36.3453 42.8092 41.253 47.4101 46.142 52.0296C45.5984 52.5638 45.0704 53.1136 44.5128 53.6307C40.1752 49.5407 35.8344 45.4554 31.4968 41.3669C27.2292 45.5909 22.9352 49.7868 18.6661 54.0107C18.135 53.475 17.5276 53.0139 17.0479 52.4299C20.5211 48.8912 24.1158 45.4741 27.6171 41.9635C28.9191 40.7221 30.1605 39.4216 31.4625 38.1819Z" fill="white"/>
<path d="M61.5196 49.8538C63.8231 47.5892 66.1329 45.3277 68.4395 43.0662C72.3878 46.7341 76.3127 50.4269 80.2548 54.1011C79.7018 54.6306 79.1396 55.1509 78.5991 55.6929C75.238 52.5311 71.8442 49.4037 68.4832 46.2419C65.1314 49.508 61.803 52.7975 58.456 56.0682C57.8875 55.5496 57.333 55.0169 56.7832 54.4796C58.3983 52.975 59.9294 51.3833 61.5196 49.8538Z" fill="white"/>
<path d="M19.7705 55.099C23.6347 51.2676 27.5533 47.4938 31.4066 43.6498C35.3642 47.3022 39.2704 51.0106 43.2249 54.6676C42.6907 55.219 42.144 55.7579 41.602 56.3014C38.2191 53.1413 34.8378 49.978 31.4424 46.8318C28.1421 50.1384 24.7592 53.3624 21.4604 56.6706C20.8919 56.1519 20.3234 55.6348 19.7705 55.099Z" fill="white"/>
<path d="M12.5 51.4794C18.8531 57.074 25.2201 62.653 31.5638 68.2584C37.4045 62.8726 43.242 57.4836 49.0686 52.0822C49.0078 53.1226 49.1589 54.1599 49.1293 55.2003C43.2825 60.5675 37.4496 65.9486 31.6152 71.3298C25.3821 65.8287 19.1786 60.2933 12.9486 54.7876C12.7959 54.6365 12.5779 54.4932 12.6075 54.2471C12.5825 53.3251 12.5187 52.403 12.5 51.4794Z" fill="white"/>
<path d="M50.875 51.7523C57.1922 57.2876 63.5764 62.7482 69.9232 68.2493C75.5754 62.7747 81.2338 57.3048 86.8689 51.8146C86.8564 52.8472 86.9592 53.8767 86.9841 54.9078C81.3506 60.412 75.6533 65.8508 70.0074 71.341C63.6808 65.7994 57.3293 60.2858 50.9965 54.7504C50.9591 53.7505 50.942 52.7506 50.875 51.7523Z" fill="white"/>
<path d="M70.1931 74.2081C75.8827 68.5342 81.4897 62.7807 87.1247 57.0522C87.1683 58.0397 87.1668 59.0303 87.2104 60.0193C81.5769 65.7774 75.9279 71.5199 70.3037 77.2858C63.9538 71.7395 57.6225 66.1714 51.2679 60.6298C51.2539 59.5458 51.162 58.4665 51.1309 57.3824C57.4792 62.9988 63.8432 68.5949 70.1931 74.2081Z" fill="white"/>
<path d="M12.6777 57.0989C19.0355 62.8041 25.3838 68.5217 31.7556 74.2097C37.6165 68.6276 43.401 62.9645 49.2167 57.3357C49.1747 58.2935 49.36 59.2514 49.2635 60.2093C48.8632 60.7731 48.3009 61.2045 47.815 61.6936C42.493 66.9128 37.1212 72.079 31.8085 77.3075C25.9336 72.0821 20.0681 66.8473 14.1979 61.6157C13.7244 61.1734 13.1948 60.7855 12.7712 60.2934C12.7572 59.2296 12.6933 58.1643 12.6777 57.0989Z" fill="white"/>
<path d="M70.4689 79.4369C76.1071 73.699 81.7265 67.9441 87.3413 62.1829C87.427 63.2202 87.4768 64.259 87.5002 65.2994C81.8527 71.0357 76.1958 76.7642 70.5437 82.4974C64.2202 77.029 57.8656 71.5964 51.5375 66.1327C51.4316 65.0923 51.4596 64.0472 51.4082 63.0052C57.7472 68.4985 64.1314 73.9404 70.4689 79.4369Z" fill="white"/>
<path d="M31.9163 79.426C37.774 73.8049 43.5633 68.1154 49.3634 62.4383C49.4335 63.4849 49.4709 64.5331 49.4631 65.5829C43.624 71.2242 37.7803 76.8623 31.9583 82.5207C25.6302 76.9589 19.2849 71.4142 12.9459 65.8664C12.8992 64.8166 12.9163 63.7668 12.8867 62.7186C15.4036 65.0066 17.9984 67.2074 20.5465 69.4611C24.339 72.7801 28.1269 76.1038 31.9163 79.426Z" fill="white"/>
</svg>
