<svg width="100" height="100" viewBox="0 0 100 100" fill="none" xmlns="http://www.w3.org/2000/svg">
<g clip-path="url(#clip0_20_4228)">
<rect width="100" height="100" fill="#154314"/>
<circle cx="50" cy="50" r="50" fill="#154314"/>
<path fill-rule="evenodd" clip-rule="evenodd" d="M35.5469 86.0156C40.3906 88.4375 46.0938 88.0469 51.0156 86.1719C57.1875 83.75 62.5 79.5312 66.7969 74.6875C61.9531 78.4375 55.3906 80 49.375 78.5156C46.0156 77.7344 43.8281 74.6875 42.5781 71.7188C40.4687 66.1719 41.4062 60.0781 42.9687 54.5313C44.5312 49.0625 46.9531 43.8281 49.6094 38.8281C51.7188 34.8438 54.0625 31.0156 56.875 27.4219C55.3125 28.4375 53.9062 29.6094 52.5 30.8594C48.4375 34.375 44.5312 38.0469 40.625 41.7969C33.2812 49.2969 26.6406 57.5 20.4688 65.9375C24.6092 61.6408 28.7502 57.3436 32.9687 53.125C31.7969 55.3906 30.7031 57.6563 29.8437 60.0781C27.9687 65.3906 27.0313 71.25 28.4375 76.7969C29.375 80.625 31.875 84.2188 35.5469 86.0156ZM65.7422 26.6016C66.3477 26.8945 66.9531 27.1875 67.5781 27.5C67.3437 26.0938 67.1094 24.7656 66.7969 23.5156C67.2082 23.1042 67.594 22.6929 67.9749 22.2867C68.5343 21.6901 69.0832 21.1046 69.6875 20.5469C68.931 20.4628 68.1746 20.3562 67.4303 20.2512C66.7909 20.1611 66.1606 20.0722 65.5469 20C64.9219 18.75 64.2969 17.5 63.6719 16.3281C63.3984 16.9531 63.1054 17.5782 62.8125 18.2032C62.5195 18.8282 62.2266 19.4531 61.9531 20.0781C60.5469 20.3125 59.2187 20.5469 57.8906 20.7813L60.9375 23.5938C60.8295 24.242 60.738 24.8737 60.6479 25.4964C60.5425 26.2245 60.4388 26.9404 60.3125 27.6563C60.6124 27.4963 60.9175 27.3363 61.2251 27.175C62.1191 26.7062 63.0343 26.2263 63.9062 25.7031C64.5312 26.0156 65.1367 26.3086 65.7422 26.6016Z" fill="#FCB004"/>
</g>
<defs>
<clipPath id="clip0_20_4228">
<rect width="100" height="100" fill="white"/>
</clipPath>
</defs>
</svg>
