<svg width="100" height="100" viewBox="0 0 100 100" fill="none" xmlns="http://www.w3.org/2000/svg">
<rect width="100" height="100" fill="#3A2206"/>
<path d="M19.6462 42.3837H18.1777V49.5866C18.1777 52.2919 17.2254 53.1055 14.811 53.1055C12.7871 53.099 12 52.3185 12 51.3065C12 51.0749 12.0859 50.3276 12.8267 50.3276C13.5609 50.3276 13.6072 50.8237 13.6072 51.6306C13.6072 51.9679 13.7462 52.6293 14.6126 52.6293C15.9885 52.6293 16.6036 52.001 16.6036 49.7786V42.3837H15.1881V42H19.6462V42.3837ZM19.9439 51.3858C19.6991 51.3858 19.4875 51.4651 19.3222 51.6371C19.1502 51.8091 19.0642 52.0141 19.0642 52.2588C19.0642 52.5036 19.1502 52.7086 19.3222 52.8674C19.4941 53.0393 19.6991 53.1188 19.9439 53.1188C20.1886 53.1188 20.3936 53.0395 20.5723 52.8674C20.7442 52.7086 20.8301 52.5036 20.8301 52.2588C20.8301 52.0075 20.7442 51.8091 20.5723 51.6371C20.4004 51.4652 20.1951 51.3858 19.9439 51.3858ZM29.5016 51.3858C29.2569 51.3858 29.0518 51.4651 28.8799 51.6371C28.708 51.8092 28.6284 52.0141 28.6284 52.2588C28.6284 52.5036 28.7078 52.7086 28.8799 52.8674C29.0585 53.0393 29.2635 53.1188 29.5016 53.1188C29.7463 53.1188 29.958 53.0395 30.1299 52.8674C30.3018 52.7086 30.3879 52.5036 30.3879 52.2588C30.3879 52.0075 30.3018 51.8091 30.1299 51.6371C29.958 51.4652 29.7463 51.3858 29.5016 51.3858ZM26.7301 42C30.1498 42 30.7319 43.2897 30.7319 45.1286C30.7319 46.9475 29.7859 48.277 26.406 48.277L25.2419 48.2836V51.0284C25.2419 51.3658 25.2816 51.5313 25.361 51.7163C25.4469 51.9346 25.6322 52.1 25.9099 52.2124C26.1083 52.2852 26.4127 52.3249 26.8096 52.338V52.8276H22.1134V52.338C22.5102 52.3249 22.8078 52.285 23.0062 52.1991C23.2708 52.0866 23.4494 51.9213 23.5289 51.7031C23.6016 51.5113 23.6413 51.4782 23.6413 50.8168V42.3836H22.3581V42.0065L26.7301 42ZM26.1282 47.8604C28.1919 47.8604 29.217 46.9675 29.217 45.2213C29.217 43.4817 28.6482 42.4168 26.0422 42.4168L25.2353 42.4299V47.8669H26.1282M44.1589 51.6768C44.0994 51.4851 44.0663 51.2468 44.0663 50.9426V42.3837H45.1973V42H42.4391C42.4059 42.0993 39.1186 50.2746 39.1186 50.2746C39.1114 50.2878 39.1009 50.299 39.0882 50.3071C39.0754 50.3152 39.0609 50.32 39.0458 50.321C39.0061 50.321 38.9797 50.3011 38.9665 50.2746C38.9665 50.2746 35.4741 42.0993 35.4346 42H32.3721V42.377H33.6422V50.6053C33.6422 50.6053 33.6157 51.3659 33.6157 51.3726C33.5958 51.571 33.5297 51.7496 33.4304 51.8951C33.3246 52.0473 33.1592 52.1663 32.9409 52.2457C32.7953 52.292 32.5772 52.325 32.3126 52.3316V52.8211H35.4279V52.3316C35.1701 52.3185 35.0576 52.292 34.9054 52.2457C34.6805 52.1729 34.5151 52.0604 34.4027 51.9017C34.3034 51.7561 34.2373 51.5776 34.2174 51.3659C34.2174 51.3659 34.1843 50.6053 34.1843 50.5987V43.5146H34.3629C34.3629 43.5146 38.305 52.7218 38.3513 52.8277H38.682L42.4191 43.6205H42.5118V50.9425C42.5118 51.2601 42.4786 51.5114 42.4191 51.7032C42.3463 51.9281 42.1876 52.0935 41.9561 52.2059C41.7842 52.2852 41.5262 52.325 41.1824 52.3381V52.8277H45.442V52.3381C45.098 52.3184 44.8335 52.2787 44.6549 52.1993C44.3904 52.0738 44.2316 51.9017 44.1589 51.6768ZM49.8869 44.8972C51.9902 44.8972 53.5511 46.3325 53.5511 48.965C53.5511 52.3449 51.1172 53.1451 49.8406 53.1451C49.1924 53.1451 46.1961 52.8938 46.1961 49.0376C46.1896 46.4053 47.6183 44.8972 49.8869 44.8972ZM49.8605 52.669C51.3885 52.669 51.8581 51.7165 51.8581 48.9451C51.8581 47.0203 51.8513 45.3799 49.8605 45.3799C48.0217 45.3799 47.8895 46.9674 47.8895 49.0839C47.8895 51.8157 48.1473 52.669 49.8605 52.669ZM59.4975 45.0162C58.1417 45.0162 57.6721 45.8165 57.2949 46.6368C57.2949 46.6368 57.1956 46.6301 57.1891 46.6301C57.1825 46.6368 56.9179 45.0824 56.9179 45.0824H54.3382V45.4925H55.7538V50.8237C55.7538 51.3527 55.7273 51.7629 55.5884 51.9877C55.4297 52.2457 55.1055 52.345 54.5631 52.345H54.3316V52.8344H58.7434V52.345H58.5053C57.9299 52.345 57.6322 52.2194 57.4801 51.9679C57.3412 51.7498 57.2751 51.3727 57.2751 50.8237V48.0588C57.2751 47.1262 58.0225 46.0547 58.8691 46.0547C59.7554 46.0547 59.7819 47.3246 60.7344 46.8684C61.4091 46.5507 61.257 45.0162 59.4975 45.0162ZM77.0586 52.0339C77.3364 52.0339 77.6738 51.7429 77.7464 51.194H78.011C77.9382 52.4507 77.3232 52.9534 76.2979 52.9534C75.3852 52.9534 74.8825 52.3051 74.7964 51.7694C74.2608 52.3382 73.4669 53.0527 72.2102 53.0527C71.0792 53.0527 70.1995 52.1795 70.1466 51.1874C69.9945 48.6474 73.3347 48.3763 74.7435 48.2506V46.9542C74.7435 46.4846 74.6377 46.1076 74.4327 45.8232C74.2145 45.5255 73.8241 45.38 73.2685 45.38C72.7923 45.38 72.4418 45.4991 72.2169 45.7305C72.0051 45.9554 71.9126 46.2001 71.8466 46.6235C71.7539 47.1989 71.5092 47.4238 71.0727 47.4238C70.8809 47.4238 70.7287 47.3708 70.59 47.2518C70.4576 47.1395 70.3915 46.974 70.3915 46.7359C70.3915 46.2266 70.59 45.876 71.0926 45.4925C71.6086 45.0957 72.4156 44.8973 73.5069 44.8973C74.6445 44.8973 75.4316 45.1089 75.835 45.519C76.2452 45.929 76.3577 46.4053 76.3577 47.0998V50.3407L76.3842 51.333C76.4369 51.7761 76.5824 52.0339 77.0586 52.0339ZM74.7501 48.7268C73.6653 48.7268 71.6942 49.4478 71.6942 50.8897C71.6942 51.3395 71.8531 52.239 72.9377 52.239C73.361 52.239 73.9364 51.9942 74.6906 51.3065L74.7237 51.2733C74.7501 51.2534 74.7501 51.2402 74.7501 51.2138V48.7268ZM86.0674 51.9877C85.8756 51.7498 85.8358 51.2271 85.8358 50.8303V47.3248C85.8358 46.8154 85.7697 46.3855 85.5779 46.0283C85.3862 45.6843 85.1149 45.4199 84.7776 45.2479C84.4336 45.076 84.0435 44.99 83.6135 44.99C82.0657 44.99 81.3911 45.883 81.0869 46.4848H80.9678L80.6966 45.0826H78.2955V45.486H79.4993V50.8239C79.4993 51.2341 79.4662 51.5316 79.4066 51.7301C79.3406 51.9681 79.1885 52.127 78.9635 52.2262C78.818 52.2857 78.5931 52.3255 78.3022 52.3386V52.8282H82.112V52.3386C81.7284 52.3055 81.4705 52.2064 81.3316 52.008C81.1794 51.7962 81.1134 51.4391 81.1134 50.9099V48.8662C81.1134 48.0129 81.1066 47.186 81.3977 46.6701C81.7152 46.1146 82.2906 45.8037 82.9321 45.8037C83.5142 45.8037 83.8251 45.989 84.0103 46.3593C84.2154 46.776 84.2616 47.5499 84.2616 48.165V50.6983C84.2616 51.1216 84.2485 51.4259 84.2221 51.6243C84.1757 51.8559 84.1228 52.0477 83.9376 52.1667C83.8054 52.2593 83.6004 52.3189 83.3292 52.3386V52.8214H87V52.3316C86.5304 52.3118 86.2526 52.2325 86.0674 51.9877ZM68.8436 44.5863C69.2603 44.454 69.6043 44.5532 69.7167 45.0229C69.7696 45.2478 69.7234 45.519 69.5911 45.757C69.4654 45.9951 69.2471 46.1672 68.9032 46.2729C68.6055 46.3722 68.288 46.3722 67.9375 46.2928C68.1029 46.65 68.2417 47.1527 68.2417 47.7413C68.2417 49.7917 66.6741 50.4069 65.0007 50.6648C63.2942 50.9293 62.8577 51.1344 62.8577 51.6701C62.8577 52.0339 63.0826 52.2456 64.2665 52.2456C66.7138 52.3647 67.8053 52.2257 68.5725 53.2775C68.8105 53.6147 68.9297 54.0646 68.9297 54.6268C68.9297 55.0369 68.8239 55.4668 68.5924 55.8836C68.3741 56.3001 67.964 56.664 67.3752 56.9616C66.7865 57.2593 65.9664 57.4181 64.961 57.4181C64.2004 57.4181 63.6513 57.3586 62.818 57.1072C62.2756 56.9485 61.5613 56.512 61.5613 55.5926C61.5613 55.3147 61.6076 55.0833 61.7332 54.8849C61.8722 54.6732 62.1565 54.5475 62.3946 54.5873C62.8179 54.66 62.9435 55.0436 62.8708 55.4074C62.7849 55.7646 62.8642 56.2673 63.2744 56.5185C63.8299 56.8625 64.4385 56.9418 65.1859 56.9418C66.0591 56.9418 66.7602 56.7897 67.2761 56.5053C67.8317 56.1944 68.1029 55.7776 68.1029 55.2618C68.1029 54.8848 67.9706 54.5937 67.7126 54.3953C67.4679 54.2168 67.1305 54.0977 66.7138 54.0449C66.3235 53.9985 65.7217 53.9656 64.8817 53.9588C63.9161 53.9391 63.1488 53.8266 62.5998 53.6017C62.1037 53.3967 61.7201 53.0328 61.7201 52.3582C61.7201 51.2404 62.7651 50.8964 63.9425 50.6583C64.0153 50.6452 64.0153 50.546 63.9293 50.5327C62.5469 50.2417 61.9186 49.4479 61.9186 47.8208C61.9186 46.4252 62.8645 44.8974 65.0141 44.8974C66.3436 44.8974 67.1043 45.3472 67.5011 45.711C67.6202 45.8036 67.8914 45.7969 68.0501 45.7506C68.2088 45.6977 68.3279 45.5191 68.3874 45.2017C68.4667 44.8575 68.612 44.6591 68.8436 44.5863ZM65.0536 50.2283C65.9928 50.2283 66.6675 49.9439 66.6675 47.7942C66.6675 46.2928 66.3037 45.3138 65.0536 45.3138C63.9821 45.3138 63.4793 46.3854 63.4793 47.8207C63.4728 49.8645 64.0482 50.2283 65.0536 50.2283Z" fill="white"/>
</svg>
