<svg width="100" height="100" viewBox="0 0 100 100" fill="none" xmlns="http://www.w3.org/2000/svg">
<rect width="100" height="100" fill="#009B3B"/>
<path d="M84.8344 50.2367C84.8339 57.0776 82.8049 63.7648 79.0039 69.4527C75.2029 75.1405 69.8007 79.5735 63.4804 82.1911C57.16 84.8087 50.2054 85.4934 43.4959 84.1585C36.7864 82.8236 30.6235 79.5291 25.7863 74.6917C20.9492 69.8542 17.6552 63.691 16.3207 56.9815C14.9863 50.2719 15.6714 43.3173 18.2894 36.9971C20.9075 30.6769 25.3408 25.275 31.0289 21.4744C36.717 17.6738 43.4044 15.6453 50.2453 15.6453C59.4191 15.6459 68.217 19.2906 74.7036 25.7777C81.1902 32.2648 84.8344 41.0629 84.8344 50.2367Z" fill="white"/>
<path d="M67.6797 68.1407C65.9156 67.0922 63.9095 66.5197 61.8578 66.479C59.829 66.5817 57.8498 67.1426 56.0687 68.1196C54.1505 69.1658 52.0155 69.7523 49.832 69.8329C47.8469 69.7442 45.9094 69.1962 44.1719 68.2321C42.2458 67.1791 40.1008 66.5893 37.907 66.5095C35.8809 66.6073 33.9015 67.1524 32.1109 68.1056C30.1796 69.1365 28.0386 69.7136 25.8508 69.7931H25.457C25.7148 70.1118 25.975 70.4259 26.2445 70.7306C28.4288 70.5893 30.559 69.9912 32.4976 68.9751C34.1653 68.0725 36.0133 67.5537 37.907 67.4563C39.9614 67.5384 41.9681 68.1003 43.7664 69.097C45.629 70.1162 47.7013 70.6928 49.8227 70.7821C52.1434 70.7046 54.4146 70.0901 56.4578 68.9868C58.1141 68.0689 59.9575 67.5399 61.8484 67.4399C63.7501 67.4831 65.6078 68.0202 67.2391 68.9985C69.195 70.1526 71.4205 70.7711 73.6914 70.7915C73.968 70.4751 74.2422 70.147 74.5094 69.8165C74.2492 69.8353 74.0008 69.847 73.7336 69.847C71.598 69.8258 69.5055 69.2439 67.6656 68.1595" fill="#887369"/>
<path d="M61.8562 68.272C59.828 68.3739 57.8494 68.9349 56.0695 69.9126C54.1501 70.9556 52.0157 71.5412 49.8328 71.6235C47.8475 71.5351 45.9095 70.9888 44.1703 70.0274C42.2455 68.9701 40.1001 68.3777 37.9055 68.2978C35.8786 68.3964 33.8989 68.944 32.1094 69.9009C30.4949 70.7296 28.7513 71.278 26.9531 71.5228C27.2227 71.8087 27.4945 72.097 27.7734 72.3688C29.409 72.0486 30.9937 71.5086 32.4844 70.7634C34.1517 69.8602 35.9999 69.3413 37.8937 69.2446C39.9484 69.325 41.9555 69.8869 43.7531 70.8853C45.6169 71.905 47.6912 72.4802 49.8141 72.5657C52.1335 72.4896 54.4035 71.875 56.4445 70.7704C58.1015 69.8547 59.9446 69.3266 61.8352 69.2259C63.7375 69.2666 65.596 69.8047 67.2258 70.7868C68.7278 71.6432 70.3749 72.2153 72.0844 72.4743C72.3703 72.1884 72.6586 71.8978 72.9305 71.6048C71.0698 71.4481 69.2672 70.8805 67.6523 69.9431C65.8874 68.8969 63.8817 68.3252 61.8305 68.2837" fill="#887369"/>
<path d="M61.8574 70.0601C59.8306 70.1591 57.8523 70.7152 56.0707 71.6866C54.1521 72.7319 52.0173 73.3183 49.834 73.3999C47.8478 73.313 45.9092 72.7649 44.1715 71.7991C42.2453 70.7455 40.1006 70.1541 37.9066 70.0718C35.8797 70.1704 33.9 70.718 32.1105 71.6749C30.9505 72.2408 29.7397 72.6959 28.4941 73.0343C28.7637 73.2921 29.0449 73.5382 29.3262 73.7936C30.4108 73.4469 31.4709 73.028 32.4996 72.5397C34.167 71.6365 36.0152 71.1176 37.909 71.021C39.9637 71.1013 41.9707 71.6633 43.7684 72.6616C45.631 73.6853 47.7057 74.2629 49.8293 74.3491C52.149 74.2723 54.4189 73.6568 56.4598 72.5515C58.1168 71.6358 59.9599 71.1077 61.8504 71.0069C63.7525 71.0493 65.6106 71.5873 67.241 72.5679C68.2805 73.1311 69.3734 73.5896 70.5035 73.9366L71.366 73.1679C70.0734 72.8555 68.8292 72.369 67.6676 71.7218C65.9033 70.6741 63.8972 70.1024 61.8457 70.0624" fill="#887369"/>
<path d="M61.8602 71.853C59.8317 71.9534 57.8527 72.5145 56.0734 73.4937C54.1536 74.535 52.0193 75.119 49.8367 75.1999C47.8512 75.113 45.9129 74.5666 44.1742 73.6038C42.2489 72.5488 40.1034 71.9589 37.9094 71.8812C35.8824 71.9774 33.9024 72.5243 32.1133 73.4819C31.4266 73.7913 30.7258 74.1054 30.0039 74.3749C30.2852 74.6093 30.5711 74.8319 30.8617 75.0569C31.4219 74.8226 31.9656 74.5882 32.5023 74.3538C34.1703 73.4521 36.0182 72.9332 37.9117 72.8351C39.9664 72.9154 41.9734 73.4774 43.7711 74.4757C45.6339 75.4985 47.7086 76.0753 49.832 76.1608C52.1515 76.0847 54.4215 75.4701 56.4625 74.3655C58.1183 73.4469 59.9621 72.9186 61.8531 72.821C63.755 72.8625 65.6131 73.3997 67.2437 74.3796C67.7969 74.6632 68.357 74.9397 68.9664 75.1976C69.25 74.9819 69.5359 74.7546 69.8195 74.5272C69.085 74.2375 68.3668 73.9081 67.668 73.5405C65.903 72.4944 63.8974 71.9227 61.8461 71.8812" fill="#887369"/>
<path d="M61.857 73.6416C59.8288 73.7435 57.8502 74.3045 56.0703 75.2822C54.1499 76.3222 52.0159 76.906 49.8336 76.9885C47.848 76.9016 45.9097 76.3552 44.1711 75.3924C42.2458 74.3374 40.1003 73.7475 37.9062 73.6697C35.8795 73.7676 33.8998 74.3143 32.1101 75.2705C31.9086 75.3596 31.707 75.4533 31.5078 75.5377C31.8055 75.7557 32.1031 75.9689 32.4031 76.1658C32.4357 76.158 32.4672 76.1462 32.4969 76.1307C34.1648 75.2289 36.0127 74.7101 37.9062 74.6119C39.9606 74.6942 41.9672 75.2561 43.7656 76.2525C45.6282 77.2762 47.7029 77.8538 49.8265 77.94C52.146 77.8618 54.4157 77.2465 56.457 76.1424C58.1142 75.2274 59.9573 74.7001 61.8476 74.6002C63.7491 74.6403 65.6072 75.1759 67.2383 76.1541L67.4469 76.2572C67.7469 76.058 68.0375 75.8541 68.3328 75.6455L67.6648 75.3127C65.8999 74.2665 63.8943 73.6949 61.843 73.6533" fill="#887369"/>
<path d="M56.0777 77.0586C54.1578 78.0992 52.0234 78.6824 49.841 78.7625C47.8582 78.6783 45.9221 78.1343 44.1855 77.1734C42.2589 76.1168 40.1119 75.5253 37.916 75.4461C36.247 75.4914 34.6062 75.8866 33.0996 76.6063C33.4277 76.8219 33.7582 77.0211 34.0957 77.2156C35.3021 76.6935 36.5993 76.4132 37.9137 76.3906C39.968 76.4729 41.9747 77.0347 43.773 78.0313C45.6372 79.0502 47.7113 79.6252 49.834 79.7117C52.1535 79.6356 54.4234 79.0209 56.4645 77.9164C58.1215 77.0007 59.9645 76.4726 61.8551 76.3719C63.2368 76.3669 64.6025 76.6687 65.8535 77.2555C66.1816 77.0609 66.5051 76.8688 66.8285 76.6625C65.2934 75.8591 63.5877 75.4363 61.8551 75.4297C59.8276 75.5315 57.8497 76.0925 56.0707 77.0703" fill="#887369"/>
<path d="M50 12.5C42.5832 12.5 35.333 14.6993 29.1661 18.8199C22.9993 22.9404 18.1928 28.7971 15.3545 35.6494C12.5162 42.5016 11.7736 50.0416 13.2206 57.3159C14.6675 64.5902 18.239 71.272 23.4835 76.5165C28.728 81.761 35.4098 85.3325 42.6841 86.7794C49.9584 88.2264 57.4984 87.4837 64.3506 84.6455C71.2029 81.8072 77.0596 77.0007 81.1801 70.8339C85.3007 64.667 87.5 57.4168 87.5 50C87.5 40.0544 83.5491 30.5161 76.5165 23.4835C69.4839 16.4509 59.9456 12.5 50 12.5ZM50 81.5234C43.7663 81.5239 37.6724 79.6759 32.489 76.213C27.3055 72.7502 23.2653 67.8281 20.8793 62.0691C18.4932 56.3101 17.8684 49.9729 19.0839 43.8588C20.2994 37.7448 23.3006 32.1284 27.7081 27.72C32.1155 23.3117 37.7311 20.3092 43.8449 19.0923C49.9587 17.8754 56.2961 18.4988 62.0556 20.8836C67.8151 23.2684 72.7381 27.3075 76.2021 32.4902C79.6661 37.6728 81.5155 43.7663 81.5164 50C81.5173 54.1394 80.7028 58.2384 79.1194 62.063C77.536 65.8875 75.2146 69.3627 72.288 72.29C69.3613 75.2173 65.8866 77.5394 62.0624 79.1237C58.2382 80.708 54.1394 81.5234 50 81.5234Z" fill="#E71618"/>
<path d="M67.7469 40.707C67.363 41.8691 66.6357 42.8873 65.6609 43.6273C64.1984 44.7992 54.5 50.7383 53.3984 52.1047C52.4547 53.5653 52.0075 55.2915 52.1234 57.0266V68.4289H53.6352V65.4734C53.7433 64.0258 54.3689 62.6656 55.3977 61.6414C58.4735 59.1245 61.7092 56.8095 65.0844 54.7109C66.0597 53.9376 66.82 52.9267 67.2924 51.7751C67.7648 50.6235 67.9334 49.3699 67.782 48.1344V40.3438L67.7469 40.707Z" fill="#009B3B"/>
<path d="M52.1348 51.4061C53.2059 50.0561 63.2137 43.9507 64.648 42.7835C65.5146 42.1937 66.2421 41.422 66.7797 40.5221C67.3172 39.6223 67.652 38.6159 67.7606 37.5733V24.8022C67.5685 26.6397 66.7558 28.3567 65.4566 29.6702C63.9871 31.5968 57.2535 35.239 53.9277 37.5757C52.5802 38.3228 51.4554 39.4147 50.6688 40.7396C49.8822 42.0645 49.462 43.5747 49.4512 45.1155V68.4429H50.9441V56.2671C50.7981 54.5635 51.2173 52.8592 52.1371 51.4179" fill="#009B3B"/>
<path d="M44.5371 38.2015C41.0552 35.6023 37.7182 32.8146 34.541 29.8507C33.2537 28.4944 32.4326 26.7628 32.1973 24.9077V36.7694C32.2514 38.134 32.6199 39.4677 33.274 40.6666C33.9281 41.8654 34.8502 42.8971 35.9684 43.6811C38.9262 45.8421 43.0957 48.9827 44.3449 50.2436C46.0163 52.0852 46.8895 54.5142 46.773 56.9983V68.4429H48.2496V45.6241C48.4282 44.159 48.1713 42.6738 47.5111 41.3537C46.8509 40.0337 45.8165 38.9373 44.5371 38.2015Z" fill="#009B3B"/>
</svg>
