<svg width="100" height="100" viewBox="0 0 100 100" fill="none" xmlns="http://www.w3.org/2000/svg">
<rect width="100" height="100" fill="#534D77"/>
<path d="M40.4523 26.3872C40.246 26.8185 40.5835 27.3247 40.5648 27.8872V28.1497L40.6023 29.3497H53.371C59.1648 29.3497 65.7648 28.3747 71.4648 25.6372C71.6898 25.5435 71.9148 25.7497 71.8773 25.956V26.0122L69.1398 32.6685C67.696 35.7997 64.3398 36.8122 52.8835 36.8497H40.6023V48.2685L62.896 42.1185C63.3648 41.9872 65.746 41.4997 67.2648 43.1497C68.9898 45.006 70.6023 46.7122 71.7273 48.2685C72.0273 48.6435 71.9148 48.981 71.4085 48.831C70.2648 48.531 69.8523 48.9622 68.7273 49.2622V64.9747H75.0273C78.7585 64.9747 78.946 64.3372 79.4898 63.9622C79.6398 63.8497 79.921 63.8497 79.9585 64.0747C80.0148 64.2997 79.921 64.506 79.396 65.5747C78.8335 66.6247 76.9585 69.8872 75.8148 71.2935C75.0126 72.2442 74.014 73.0097 72.8875 73.5373C71.7611 74.0649 70.5336 74.3421 69.2898 74.3497H31.0398C29.7338 74.3924 28.435 74.1398 27.2403 73.6106C26.0456 73.0814 24.9857 72.2893 24.1398 71.2935C22.8154 69.476 21.6248 67.5647 20.5773 65.5747C20.0148 64.506 19.9398 64.2997 19.996 64.0747C20.0335 63.8497 20.3148 63.8497 20.4648 63.9622C20.9898 64.3372 21.196 64.956 24.5898 64.9747H31.2273V33.2872C31.2273 32.1622 32.4273 30.9622 33.8523 29.8185C35.6335 28.4122 38.3898 26.631 40.1898 25.656C40.4523 25.506 40.8648 25.6185 40.4523 26.406V26.3872ZM59.3523 51.4185L40.6023 56.6685V64.9747H59.3523V51.4185Z" fill="white"/>
</svg>
