<svg width="100" height="100" viewBox="0 0 100 100" fill="none" xmlns="http://www.w3.org/2000/svg">
<rect width="100" height="100" fill="white"/>
<path d="M42.9004 56.0942H18.1738V18.1841H23.7988V50.3521H42.9004V56.0942Z" fill="#6D7071"/>
<path d="M76.1816 18.1841V33.0669H58.4277V18.1841H52.8027V56.0942H58.4277V38.7505H76.1816V56.0942H81.8066V18.1841H76.1816Z" fill="#6D7071"/>
<path fill-rule="evenodd" clip-rule="evenodd" d="M18.1162 81.819H26.0772V67.9253H18.1162V81.819Z" fill="#CED629"/>
<path fill-rule="evenodd" clip-rule="evenodd" d="M26.0771 81.819H34.0421V67.9253H26.0771V81.819Z" fill="#47B9C0"/>
<path fill-rule="evenodd" clip-rule="evenodd" d="M34.04 81.819H42.001V67.9253H34.04V81.819Z" fill="#8B3F92"/>
<path fill-rule="evenodd" clip-rule="evenodd" d="M42.001 81.819H49.962V67.9253H42.001V81.819Z" fill="#ED8068"/>
<path fill-rule="evenodd" clip-rule="evenodd" d="M49.9639 81.819H57.9249V67.9253H49.9619L49.9639 81.819Z" fill="#0080BE"/>
<path fill-rule="evenodd" clip-rule="evenodd" d="M57.9209 81.819H65.8859V67.9253H57.9209V81.819Z" fill="#F5BF0E"/>
<path fill-rule="evenodd" clip-rule="evenodd" d="M65.8857 81.819H73.8467V67.9253H65.8857V81.819Z" fill="#94988D"/>
<path fill-rule="evenodd" clip-rule="evenodd" d="M73.8467 81.819H81.8096V67.9253H73.8467V81.819Z" fill="#F08D1D"/>
</svg>
