<svg width="100" height="100" viewBox="0 0 100 100" fill="none" xmlns="http://www.w3.org/2000/svg">
<rect width="100" height="100" fill="white"/>
<path d="M18.1836 58.6131C18.1836 58.6131 50 48.242 87.5 61.2498C87.5 61.2498 57.1484 54.9803 18.1836 58.6131Z" fill="#ED1A3A"/>
<path d="M12.5 51.6406H14.1992L15.1367 41.9141L19.4727 51.7578H19.8242L24.2188 41.7383L25.0977 51.6992H28.9648L27.6172 38.8086H23.6914L20.8789 45.6641L17.832 38.75H12.6758V39.2187C12.6758 39.2187 13.9062 39.043 13.7305 40.6836L12.5 51.6406Z" fill="#183181"/>
<path d="M30.0781 39.9805V40.3906C30.0781 40.3906 31.1914 40.2734 31.1914 41.8555C31.1914 43.3789 31.1914 51.8164 31.1914 51.8164H34.5898V39.9805H30.0781Z" fill="#183181"/>
<path d="M36.4648 39.9219V42.3828H36.8164C36.8164 42.3828 36.6992 41.3867 38.0469 41.3867H41.9727L36.1133 51.3477V51.7578H47.0703V50.2344H40.7422L46.7188 40.332V39.9219H36.4648Z" fill="#183181"/>
<path d="M47.2461 39.9219H51.7578V48.3594C51.7578 48.3594 51.4648 50.6445 54.043 50.6445H56.0938V41.7969C56.0938 41.7969 56.3281 40.5078 55.0391 40.5078V39.9805H59.6094V45.0195H63.9453V41.4453C63.9453 41.4453 64.1211 40.332 62.832 40.332V39.9219H67.3437V51.6406H63.8281C63.8281 51.6406 64.0039 50.5273 64.0039 49.8242V46.3672H59.375V50.1172C59.375 50.1172 59.3164 50.8789 59.4922 51.6406C59.4922 51.6406 56.1523 51.9336 54.043 51.9336C51.9336 51.9336 48.1836 51.9922 48.1836 47.4219C48.1836 42.8516 48.1836 42.0898 48.1836 42.0898C48.1836 42.0898 48.3008 40.3906 47.1875 40.3906V39.9219H47.2461Z" fill="#183181"/>
<path d="M75.4297 39.6875C71.6211 39.6875 68.5156 42.3828 68.5156 45.7227C68.5156 49.0625 71.6211 51.7578 75.4297 51.7578C79.2383 51.7578 82.3437 49.0625 82.3437 45.7227C82.3437 42.3828 79.2383 39.6875 75.4297 39.6875ZM75.4297 50.5859C73.4961 50.5859 71.9141 48.4766 71.9141 45.8984C71.9141 43.3203 73.4961 41.2109 75.4297 41.2109C77.3633 41.2109 78.8867 43.3203 78.8867 45.8984C78.8867 48.4766 77.3633 50.5859 75.4297 50.5859Z" fill="#183181"/>
</svg>
