<svg width="100" height="100" viewBox="0 0 100 100" fill="none" xmlns="http://www.w3.org/2000/svg">
<rect width="100" height="100" fill="#1A3763"/>
<path d="M33.1496 25.332C33.9012 25.2926 34.6549 25.2357 35.4065 25.2948C42.1134 25.3013 48.8225 25.2948 55.5295 25.297C58.5443 25.3123 61.6653 25.9816 64.16 27.8079C66.2619 29.3214 67.7481 31.6267 68.5251 34.1245C69.005 35.6512 69.2661 37.2522 69.3086 38.8554C69.3022 45.697 69.3107 52.5408 69.3043 59.3824C74.1493 64.1964 79.0049 69.0017 83.852 73.8135C84.0133 73.9776 84.232 74.1897 84.1683 74.4478C84.0516 74.6797 83.7586 74.7015 83.5356 74.7278C67.4933 74.7234 51.451 74.7278 35.4107 74.7278C32.5933 74.7431 29.7038 74.3122 27.1772 72.9627C25.708 72.1819 24.396 71.0773 23.3896 69.7256C21.7038 67.475 20.8588 64.6513 20.6741 61.8408C20.6083 61.1496 20.6423 60.4541 20.6529 59.7607C20.6529 52.1012 20.6529 44.4416 20.6529 36.782C20.7081 34.4329 21.3599 32.0445 22.776 30.1722C24.19 28.2672 26.2728 27.0008 28.4575 26.2615C29.9755 25.7453 31.5594 25.461 33.1496 25.332ZM30.328 31.6858C29.2643 32.0423 28.2855 32.7335 27.6762 33.7111C27.052 34.7085 26.7611 35.9158 26.7972 37.0969C26.7972 40.4302 26.7972 43.7635 26.7972 47.0968C29.621 47.0968 32.4447 47.099 35.2706 47.0968V42.3222C35.2621 41.5348 35.6018 40.7299 36.2324 40.2684C36.8672 39.7959 37.6782 39.6713 38.4468 39.691C39.7334 39.691 41.02 39.691 42.3066 39.691C42.313 36.9066 42.3045 34.1223 42.3109 31.338C39.3873 31.3293 36.4638 31.338 33.5424 31.3336C32.4638 31.2265 31.3598 31.3402 30.328 31.6858ZM48.02 31.3315C48.0072 34.118 48.0157 36.9045 48.0157 39.691C49.3788 39.6931 50.744 39.691 52.107 39.691C52.8352 39.6953 53.6017 39.8616 54.1813 40.3406C54.7567 40.8086 55.0603 41.5741 55.0518 42.32C55.0518 43.9123 55.0369 45.5045 55.0433 47.0968C57.8713 47.1012 60.6993 47.0968 63.5252 47.0968V36.9373C63.5443 36.1302 63.419 35.3165 63.143 34.5598C62.7608 33.4902 61.9732 32.5913 60.9923 32.0707C59.7057 31.3818 58.2089 31.2046 56.78 31.3336C53.8607 31.3315 50.9414 31.3402 48.0221 31.3293L48.02 31.3315ZM26.7993 52.8995C26.7972 56.4187 26.7993 59.9357 26.7993 63.4549C26.8227 64.2904 26.9819 65.1369 27.3726 65.8784C27.8375 66.786 28.6316 67.486 29.5297 67.9146C30.8227 68.538 32.2791 68.7283 33.6931 68.6627C36.5657 68.6649 39.4383 68.6627 42.3088 68.6627C42.3088 65.8784 42.3109 63.0919 42.3088 60.3075C40.9436 60.3075 39.5806 60.3075 38.2175 60.3075C37.4893 60.3054 36.7228 60.1369 36.1432 59.6579C35.5678 59.1877 35.2664 58.4222 35.2749 57.6742V52.8995C32.4511 52.8995 29.6273 52.8995 26.8015 52.8995H26.7993ZM55.0327 53.2429C55.0242 54.7455 55.0305 56.2481 55.0305 57.7485C55.0539 58.3894 54.8947 59.0652 54.4637 59.5464C53.9817 60.0691 53.262 60.2966 52.5762 60.2879C51.0008 60.2813 49.4255 60.2966 47.8501 60.2791C47.814 60.6422 47.8416 61.0053 47.8331 61.3705C47.831 63.7611 47.8395 66.1496 47.8289 68.5402C48.4977 68.5664 49.1686 68.5446 49.8374 68.5511C56.5358 68.5467 63.2343 68.5599 69.9328 68.5446C67.0538 65.5656 64.1557 62.6085 61.2747 59.6317C59.1855 57.5123 57.1409 55.3426 55.0348 53.2429H55.0327Z" fill="white"/>
<path d="M55.0327 53.2429C57.1409 55.3426 59.1834 57.5123 61.2725 59.6317C64.1536 62.6085 67.0517 65.5656 69.9306 68.5446C63.2322 68.5599 56.5337 68.5468 49.8353 68.5511C49.1643 68.5446 48.4956 68.5664 47.8268 68.5402C47.8374 66.1496 47.8268 63.7612 47.831 61.3705C47.8395 61.0053 47.8119 60.64 47.848 60.2791C49.4234 60.2966 50.9987 60.2791 52.5741 60.2879C53.2599 60.2966 53.9817 60.0692 54.4616 59.5464C54.8925 59.0652 55.0518 58.3894 55.0284 57.7485C55.0284 56.2459 55.0221 54.7433 55.0305 53.2429H55.0327Z" fill="#54A69A"/>
</svg>
