<svg width="100" height="100" viewBox="0 0 100 100" fill="none" xmlns="http://www.w3.org/2000/svg">
<rect width="100" height="100" fill="#462279"/>
<path d="M17.2969 75.504C22.6875 78.0235 28.0782 80.6017 33.4688 83.1798C33.7032 83.3556 34.1133 83.3556 34.4063 83.3556C38.5079 83.3556 42.6094 83.3556 46.711 83.3556C47.4141 83.3556 47.5313 83.1212 47.5313 82.4767C47.4727 78.8439 47.5313 75.2111 47.5313 71.5782C47.5313 71.3439 47.4727 71.2267 47.4727 70.8751C47.1797 71.0509 46.8868 71.1095 46.6524 71.2267C42.9024 72.8673 39.0352 74.215 34.8164 73.6876C33.1758 73.4532 31.711 72.9259 30.4805 71.754C28.3125 69.7032 27.7266 67.0079 27.668 64.1954C27.6094 61.8517 27.8438 59.5079 28.1368 57.1642C28.4297 54.4103 29.1329 51.7736 30.3047 49.254C33.4102 42.3986 37.9805 36.5392 43.3711 31.3829C45.1289 29.6837 47.2383 28.3361 49.2305 26.8126C49.6993 26.4611 50.168 26.4611 50.6954 26.8126C52.2774 27.9845 53.918 29.0392 55.3829 30.2696C59.1914 33.6095 62.4141 37.4181 65.2266 41.5782C68.0977 45.7384 70.5 50.1915 71.4375 55.2306C72.1407 58.922 72.6094 62.672 71.9649 66.422C71.0274 71.4611 68.0391 73.629 63.5274 73.7462C61.3008 73.8048 59.1329 73.3361 57.0235 72.5743C55.5 72.047 53.9766 71.4025 52.4532 70.8165C52.4532 71.0509 52.4532 71.1681 52.4532 71.3439C52.4532 74.9767 52.4532 78.6095 52.4532 82.1837C52.4532 82.9454 52.6875 83.1212 53.4493 83.1212C57.4336 83.0626 61.3594 83.1212 65.3438 83.0626C65.8711 83.0626 66.3985 82.8868 66.8672 82.7111C72.0821 80.2501 77.2969 77.7306 82.4532 75.2696C83.5079 74.7423 83.5079 74.8009 83.2149 73.629C80.2852 62.1446 77.4141 50.7189 74.4844 39.2345C74.3672 38.8829 74.1914 38.4728 73.8399 38.1212C72.668 36.9493 71.4375 35.8361 70.2657 34.7228C67.9805 32.6134 65.6954 30.504 63.3516 28.3946C60.2461 25.5821 57.1993 22.8282 54.0938 19.9571C52.9219 18.8439 51.6329 17.7306 50.461 16.5587C50.0508 16.2071 49.7579 16.2071 49.3477 16.6173C48.8204 17.1446 48.2344 17.6134 47.7071 18.0821C45.3047 20.3087 42.9024 22.5353 40.5 24.7032C37.9219 27.047 35.4024 29.3907 32.7657 31.7345C30.8907 33.4337 29.0157 35.1329 27.1407 36.8321C26.4375 37.5353 25.5586 38.1212 25.2657 39.2345C22.3946 50.6603 19.5235 62.1446 16.5938 73.5704C16.4766 74.8009 16.5938 75.2111 17.2969 75.504Z" fill="white"/>
</svg>
