<svg width="100" height="100" viewBox="0 0 100 100" fill="none" xmlns="http://www.w3.org/2000/svg">
<rect width="100" height="100" fill="white"/>
<path fill-rule="evenodd" clip-rule="evenodd" d="M64.5671 27.7366C65.4447 27.7366 66.3392 27.8885 67.1492 28.226C67.9762 28.5635 68.7188 29.053 69.3432 29.6774C69.9677 30.3018 70.474 31.0444 70.8115 31.8545C71.149 32.6646 71.3347 33.5422 71.3347 34.4366C71.3347 35.3311 71.1659 36.1918 70.8115 37.0188C70.474 37.8288 69.9677 38.5714 69.3432 39.1958C68.7188 39.8203 67.9593 40.3097 67.1492 40.6472C66.3223 40.9848 65.4447 41.1535 64.5671 41.1367C62.9976 41.1367 61.8162 40.6304 60.6855 39.9047L52.2978 34.4366L60.6855 28.9686C61.7993 28.2429 62.9469 27.7366 64.5671 27.7366ZM62.0019 86.3999L30.5606 65.9285C30.5606 65.9285 26.6114 63.667 25.717 59.4479C24.4512 53.5242 28.6366 48.4443 28.6366 48.4443L69.4276 75.0082C72.5667 77.0671 73.4274 81.2526 71.419 84.4254C69.3432 87.6826 65.0734 88.3914 62.0019 86.3999Z" fill="#38D200"/>
<path fill-rule="evenodd" clip-rule="evenodd" d="M32.1299 87.48C31.2523 87.48 30.3578 87.3281 29.5477 86.9906C28.7208 86.6531 27.9782 86.1637 27.3538 85.5392C26.7293 84.9148 26.223 84.1722 25.8855 83.3621C25.5479 82.552 25.3623 81.6745 25.3623 80.78C25.3623 79.8855 25.5311 79.0248 25.8855 78.1979C26.223 77.3878 26.7293 76.6452 27.3538 76.0208C27.9782 75.3963 28.7376 74.9069 29.5477 74.5694C30.3747 74.2318 31.2523 74.0631 32.1299 74.08C33.6994 74.08 34.8808 74.5863 36.0115 75.312L44.3992 80.78L36.0115 86.248C34.8976 86.9737 33.75 87.48 32.1299 87.48ZM32.2142 44.0394C32.2142 44.0394 27.4044 41.1367 27.4044 34.4029C27.4044 27.6691 32.2142 24.8338 32.2142 24.8338L49.4116 13.5939C50.9305 12.6151 52.77 12.2775 54.5252 12.6488C56.2973 13.0201 57.8331 14.0833 58.8119 15.6022C59.7907 17.1211 60.1452 18.9607 59.757 20.7159C59.3857 22.4879 58.3225 24.0237 56.8036 25.0025L42.3234 34.4366L66.9971 50.5032C66.9971 50.5032 71.4357 53.0516 72.3133 57.3383C73.5284 63.3295 69.4105 68.2744 69.4105 68.2744L32.2142 44.0394Z" fill="#0473EA"/>
</svg>
