<svg width="100" height="100" viewBox="0 0 100 100" fill="none" xmlns="http://www.w3.org/2000/svg">
<rect width="100" height="100" transform="matrix(-1 0 0 -1 100 100)" fill="#0047B6" fill-opacity="0.941176"/>
<path d="M12.498 49.8795C11.9707 30.192 29.1387 11.6764 51.4629 12.4967C71.2676 13.2584 87.498 30.0162 87.498 49.9967C87.498 69.7428 71.3262 87.8482 49.2949 87.4967C28.1426 87.1451 12.0293 69.4498 12.498 49.8795ZM18.416 52.2818C18.4746 56.9107 20.1152 63.4732 23.8652 69.4498C29.9004 78.942 38.3965 84.4498 49.7051 84.7428C58.084 84.9771 65.291 81.5787 71.1504 75.6607C83.1035 63.5318 84.8613 43.7271 75.4277 29.606C67.0488 17.1256 52.6348 12.1451 39.4512 17.3014C26.9707 22.106 18.4746 35.3482 18.416 52.2818Z" fill="white"/>
<path d="M38.3377 39.3325C40.2127 37.2817 41.9119 35.4653 43.9041 33.2974C46.2479 35.7583 48.5916 38.1606 50.8182 40.563C52.9861 42.9067 52.9276 42.9067 50.6424 45.1919C49.5877 46.2466 48.7088 47.4771 48.0057 48.356C44.4315 45.0161 41.326 42.0864 38.3377 39.3325Z" fill="#FF7300"/>
<path d="M39.9783 50.8755C43.2595 54.3325 45.9548 57.145 48.533 60.0747C48.8259 60.3677 48.8845 61.3638 48.5916 61.6567C47.1267 63.4146 45.5447 64.9966 43.6697 67.0474C40.5642 63.8247 37.8103 61.0122 35.115 58.1411C34.822 57.8481 34.822 56.852 35.115 56.5005C36.5798 54.6841 38.0447 53.102 39.9783 50.8755Z" fill="#FF7300"/>
<path d="M45.3691 53.2778C48.3574 50.3481 51.3457 47.3599 54.0996 44.606C56.3262 46.4224 58.377 48.1216 60.3105 49.7622C57.0293 53.1606 54.0996 56.1489 51.0527 59.313C49.1777 57.3208 47.4199 55.4458 45.3691 53.2778Z" fill="#FF7300"/>
<path d="M50.9938 37.5161C49.0602 35.4653 47.361 33.6489 45.3102 31.5396C48.0055 28.9028 50.818 26.1489 53.7477 23.4536C54.0406 23.1606 54.9195 23.0435 55.0953 23.2778C56.3258 24.5669 57.7906 25.856 58.3766 27.438C58.7281 28.3755 58.025 30.1333 57.2633 31.0708C55.4469 33.2388 53.2203 35.231 50.9938 37.5161Z" fill="#FF7300"/>
<path d="M41.4434 46.6567C38.748 49.4106 35.8184 52.3989 32.6543 55.6216C31.3652 54.2153 29.7832 52.9849 28.9043 51.4028C28.2012 50.0552 28.5527 48.356 29.8418 47.1255C31.9512 45.0747 34.002 42.9653 36.1699 40.7974C37.9863 42.7896 39.7441 44.7817 41.4434 46.6567Z" fill="#FF7300"/>
<path d="M65.7009 66.8716C62.3024 63.4731 59.3728 60.5435 56.3259 57.438C58.2595 55.563 60.1345 53.8052 61.8337 52.1646C64.1189 54.3325 66.697 56.5005 68.9821 58.9614C70.154 60.1919 69.9196 61.8911 68.8649 63.2974C67.8689 64.4106 66.8728 65.5239 65.7009 66.8716Z" fill="#FF7300"/>
<path d="M51.2871 62.7114C53.2207 64.645 55.3301 66.6958 57.3809 68.8052C59.1973 70.7388 59.1973 72.8481 57.3809 74.7231C56.502 75.6021 55.623 76.4224 54.627 77.3599C51.5215 74.2544 48.5332 71.2661 45.4277 68.1606C47.3027 66.4028 49.1777 64.645 51.2871 62.7114Z" fill="#FF7300"/>
<path d="M56.5018 42.438C59.4315 39.6255 62.4198 36.7544 65.6424 33.7075C66.5213 34.5278 67.6932 35.4653 68.6307 36.5786C70.0956 38.3364 70.037 40.2114 68.3963 41.852C66.287 43.9614 64.0604 46.0122 61.8338 48.1216C60.2518 46.4224 58.494 44.4888 56.5018 42.438Z" fill="#FF7300"/>
</svg>
