<svg width="100" height="100" viewBox="0 0 100 100" fill="none" xmlns="http://www.w3.org/2000/svg">
<rect width="100" height="100" fill="white"/>
<g clip-path="url(#clip0_21_2)">
<path d="M80.8833 34.4871H63.8409C62.7284 34.4871 61.7375 35.191 61.3711 36.2415C60.5592 38.5725 59.6442 41.1992 58.7 43.9091C58.6708 43.993 58.6416 44.0774 58.6123 44.1615C58.5921 44.2194 58.572 44.2772 58.5517 44.3349C55.6057 52.7912 52.415 61.9461 51.2018 65.4136C51.0611 65.8454 50.8998 66.3383 50.7046 66.8443C50.67 66.9339 50.502 67.3616 50.1937 67.7838C50.1406 67.8565 50.0885 67.9215 50.036 67.9823C49.9469 68.0888 49.8336 68.2147 49.667 68.3445C49.6575 68.3519 49.6483 68.3583 49.6388 68.3652C49.5811 68.4099 49.5169 68.4556 49.4431 68.5008C49.2614 68.6119 49.1073 68.6689 49.0475 68.6898C49.0388 68.6928 49.0304 68.6956 49.022 68.6984C49.0207 68.6988 49.0191 68.6996 49.0177 68.7C49.0123 68.7018 49.0072 68.7033 49.0018 68.7052C48.9978 68.7063 48.9938 68.7078 48.9901 68.7089C48.7713 68.7819 48.5706 68.8119 48.407 68.8214C55.2351 68.8214 62.0635 68.8214 68.8918 68.8214C69.0242 68.8214 69.1564 68.8066 69.2846 68.7735C69.7825 68.6457 70.8477 68.1837 71.2962 66.5387L81.9374 35.9697C82.1898 35.2447 81.6511 34.4871 80.8833 34.4871Z" fill="#FF7B00"/>
<path d="M30.4484 63.019C30.4528 63.0065 30.4573 62.9938 30.4617 62.9813C30.4746 62.9443 30.4878 62.9073 30.5007 62.8703C30.5218 62.8101 30.5428 62.7501 30.5641 62.6898C30.5929 62.6077 30.6217 62.5256 30.6506 62.4436C30.6865 62.3409 30.7227 62.2381 30.7587 62.1353C30.8016 62.013 30.8444 61.8909 30.8874 61.7687C30.9367 61.6283 30.986 61.4878 31.0353 61.3474C31.0906 61.19 31.1458 61.0325 31.2011 60.8751C31.2619 60.7019 31.3226 60.5287 31.3834 60.3556C31.4492 60.1679 31.5152 59.98 31.581 59.7923C31.6516 59.5913 31.7222 59.3903 31.7928 59.1893C31.8675 58.9762 31.9423 58.7631 32.0172 58.5499C32.0957 58.3261 32.1744 58.102 32.253 57.8782C32.3349 57.6446 32.417 57.4111 32.4989 57.1775C32.5838 56.9356 32.6687 56.6936 32.7536 56.4517C32.8411 56.2025 32.9284 55.9537 33.0159 55.7045C33.1053 55.4496 33.1948 55.1946 33.2843 54.9397C33.3753 54.68 33.4666 54.4204 33.5576 54.1608C33.6499 53.8977 33.7423 53.6345 33.8345 53.3715C33.9276 53.1061 34.0208 52.8409 34.1139 52.5754C34.2073 52.3092 34.3008 52.0428 34.3942 51.7764C34.4877 51.5104 34.5809 51.2441 34.6743 50.9782C34.7672 50.7135 34.8601 50.4489 34.9529 50.1843C35.0447 49.9225 35.1368 49.6604 35.2286 49.3986C35.3191 49.1407 35.4098 48.8827 35.5002 48.6248C35.5889 48.3719 35.6778 48.1193 35.7664 47.8664C35.8529 47.62 35.9394 47.3735 36.0259 47.1272C36.1095 46.8884 36.1935 46.6496 36.2772 46.4109C36.3579 46.181 36.4386 45.951 36.5191 45.7212C36.5963 45.5013 36.6734 45.2816 36.7505 45.0617C36.8237 44.8531 36.8969 44.6448 36.97 44.4362C37.0388 44.2404 37.1076 44.0444 37.1764 43.8486C37.2402 43.6664 37.3042 43.4843 37.3681 43.3022C37.4267 43.135 37.4853 42.968 37.544 42.8008C37.5969 42.6499 37.65 42.499 37.7028 42.3481C37.7496 42.2147 37.7965 42.0813 37.8432 41.9479C37.8834 41.8332 37.9238 41.7185 37.9639 41.604C37.9971 41.5092 38.0303 41.4145 38.0637 41.3199C38.1178 41.1656 38.1663 41.0076 38.2382 40.8602L38.2446 40.8527L38.2474 40.8503L38.2496 40.8471L38.2534 40.8437C38.2673 40.8159 38.2733 40.7918 38.2891 40.7648C38.4301 40.4542 38.8023 40.119 38.9536 40.0713L36.6464 32.3161C36.3583 31.3287 35.4111 30.65 34.4248 30.65H18.1461C17.38 30.65 16.8299 31.3876 17.0482 32.1218L26.2125 62.9204C26.5906 64.0133 27.4124 64.5813 28.2523 64.623H28.2537C29.1275 64.6604 30.0183 64.1284 30.4484 63.019Z" fill="#FF000F"/>
<path d="M38.9522 40.0734L38.9545 40.0715L38.9464 40.0767C38.9481 40.0753 38.9503 40.0747 38.9522 40.0734Z" fill="#AA0017"/>
<path d="M45.3103 64.4932C45.2724 64.3655 45.2346 64.2378 45.1966 64.1102C45.1771 64.0444 45.1576 63.9788 45.1381 63.913L41.2108 50.719L38.4642 41.4917C38.3618 41.1476 38.396 40.8033 38.5414 40.5212C38.5764 40.4534 38.6183 40.3895 38.6656 40.3299C38.6714 40.3225 38.6762 40.3148 38.6821 40.3076C38.7489 40.2277 38.827 40.1563 38.9156 40.0957C38.9252 40.0889 38.9358 40.0829 38.946 40.0766L38.9535 40.0718C38.802 40.1195 38.4298 40.4547 38.2891 40.7653C38.2732 40.7921 38.2587 40.8198 38.2448 40.8474C38.2426 40.8518 38.2403 40.8562 38.2384 40.8607C38.1664 41.0078 38.1179 41.1659 38.0638 41.3204C38.0307 41.415 37.9974 41.5098 37.964 41.6045C37.9239 41.7192 37.8835 41.8339 37.8433 41.9484C37.7966 42.0818 37.7497 42.2152 37.703 42.3486C37.6501 42.4995 37.597 42.6504 37.5441 42.8013C37.4855 42.9685 37.4268 43.1355 37.3682 43.3027C37.3041 43.4848 37.2403 43.667 37.1766 43.849C37.1077 44.0449 37.0389 44.2409 36.9702 44.4368C36.897 44.6453 36.8238 44.8537 36.7507 45.0622C36.6735 45.2821 36.5964 45.5018 36.5193 45.7217C36.4385 45.9515 36.3578 46.1816 36.2773 46.4113C36.1934 46.6501 36.1097 46.8889 36.026 47.1277C35.9395 47.374 35.853 47.6205 35.7666 47.8669C35.6778 48.1197 35.5892 48.3724 35.5003 48.6254C35.4099 48.8832 35.3192 49.1413 35.2288 49.3991C35.1369 49.6609 35.0449 49.923 34.953 50.1848C34.8601 50.4495 34.7673 50.7141 34.6744 50.9787C34.581 51.2447 34.4878 51.5109 34.3944 51.7769C34.3009 52.0433 34.2075 52.3095 34.114 52.5759C34.021 52.8413 33.9277 53.1066 33.8347 53.372C33.7424 53.635 33.65 53.8982 33.5577 54.1613C33.4667 54.4209 33.3754 54.6806 33.2844 54.9402C33.1949 55.1951 33.1055 55.4502 33.016 55.705C32.9285 55.9542 32.8412 56.2033 32.7538 56.4522C32.6689 56.6941 32.584 56.9361 32.4991 57.1781C32.4171 57.4117 32.3352 57.645 32.2531 57.8786C32.1746 58.1025 32.0959 58.3266 32.0174 58.5505C31.9426 58.7635 31.8678 58.9767 31.7929 59.1898C31.7223 59.3908 31.6517 59.5918 31.5812 59.7928C31.5153 59.9805 31.4493 60.1682 31.3836 60.356C31.3227 60.5292 31.2621 60.7024 31.2012 60.8756C31.1459 61.033 31.0907 61.1904 31.0354 61.3479C30.9861 61.4883 30.9368 61.6289 30.8875 61.7692C30.8446 61.8915 30.8018 62.0135 30.7588 62.1358C30.7229 62.2386 30.6867 62.3414 30.6507 62.4442C30.6219 62.5263 30.593 62.6084 30.5642 62.6903C30.5432 62.7506 30.522 62.8106 30.5008 62.8708C30.4879 62.9078 30.4747 62.9448 30.4619 62.9818C30.4574 62.9943 30.4529 63.007 30.4485 63.0195C30.0185 64.1287 29.1276 64.6609 28.254 64.6235H28.2526C28.2361 64.625 28.2202 64.6261 28.2049 64.6265H45.3503C45.3366 64.5818 45.3235 64.5375 45.3103 64.4932Z" fill="#AA0017"/>
<path d="M58.7001 43.9095C58.5535 43.3801 58.408 42.8502 58.2677 42.3192C58.1522 41.8822 58.0166 41.4603 57.7806 41.0711C57.5498 40.6902 57.2363 40.3609 56.8453 40.143C56.7364 40.0822 56.6223 40.0305 56.5046 39.9887C56.3195 39.9233 56.0056 39.876 55.8094 39.876H39.6697C39.3882 39.876 39.1469 39.9499 38.9519 40.0736C38.9501 40.0748 38.9481 40.0754 38.9463 40.0766C38.9362 40.083 38.9258 40.0889 38.9159 40.0957C38.8274 40.1563 38.7491 40.2277 38.6825 40.3076C38.6765 40.3148 38.6717 40.3227 38.666 40.3299C38.6186 40.3897 38.5767 40.4534 38.5417 40.5212C38.3964 40.8033 38.3622 41.1476 38.4646 41.4917L41.2112 50.719L45.1385 63.913L45.335 64.5732L46.0811 67.1729C46.1294 67.3111 46.5248 68.3839 47.6131 68.7235C48.1477 68.8903 48.6177 68.8078 48.8573 68.7464C48.8934 68.7376 48.9384 68.7254 48.9897 68.7094C48.9935 68.7082 48.9976 68.7068 49.0014 68.7056C49.008 68.7034 49.0149 68.701 49.0217 68.6989C49.0303 68.6961 49.0384 68.6935 49.0474 68.6903C49.107 68.6694 49.2613 68.6121 49.443 68.5012C49.5167 68.4561 49.5811 68.4103 49.6386 68.3656C49.7563 68.2741 49.8432 68.1873 49.9082 68.1215C49.9514 68.0777 49.9937 68.0314 50.0358 67.9825C50.0883 67.9217 50.1406 67.8565 50.1935 67.7841C50.5019 67.362 50.6699 66.9342 50.7045 66.8445C50.8997 66.3385 51.0609 65.8457 51.2017 65.4138C51.279 65.1769 51.3502 64.9578 51.4172 64.7657C51.5864 64.2812 51.7556 63.7965 51.9248 63.312C52.1375 62.7027 52.3504 62.0933 52.5631 61.4839C52.8083 60.7821 53.0532 60.0803 53.2984 59.3785C53.5643 58.6164 53.8306 57.8544 54.0966 57.0924C54.3726 56.3025 54.6483 55.5124 54.9243 54.7225C55.1986 53.9368 55.4729 53.1511 55.7473 52.3656C56.009 51.6165 56.2706 50.8673 56.532 50.1182C56.7696 49.4379 57.0072 48.7578 57.2448 48.0774C57.447 47.4983 57.6494 46.9191 57.8515 46.3398C58.0072 45.8939 58.1629 45.4481 58.3186 45.0024C58.3963 44.7799 58.4739 44.5577 58.5516 44.3352C58.5719 44.2773 58.592 44.2197 58.6122 44.1618C58.6414 44.0779 58.6709 43.9933 58.7001 43.9095Z" fill="#FFCD00"/>
</g>
<defs>
<clipPath id="clip0_21_2">
<rect width="65" height="65" fill="white" transform="translate(17 17)"/>
</clipPath>
</defs>
</svg>
