<svg width="100" height="100" viewBox="0 0 100 100" fill="none" xmlns="http://www.w3.org/2000/svg">
<rect width="100" height="100" fill="white"/>
<path d="M27.7396 61.0956C23.5261 61.0956 20.1318 57.7014 20.1318 53.4879V46.1728H27.4469V39.1504H20.1318V31.8352H13.1094V53.4879C13.1094 61.5637 19.6637 68.1181 27.7396 68.1181C32.187 68.1181 36.1665 66.1283 38.8584 62.9682C36.6932 60.3934 35.3472 57.1161 35.3472 53.4879C35.3472 57.6428 31.8945 61.0956 27.7396 61.0956Z" fill="#0050F0"/>
<path d="M57.5856 53.4879C57.5856 57.7014 54.1913 61.0956 49.9779 61.0956C45.7644 61.0956 42.3701 57.7014 42.3701 53.4879V46.1728H49.6853V39.1504H42.3701V31.8352H35.3477V53.4879C35.3477 57.1161 36.6937 60.4518 38.8589 62.9682C41.5509 66.1283 45.5302 68.1181 49.9779 68.1181C54.4255 68.1181 58.4048 66.1283 61.0968 62.9682C58.8729 60.3934 57.5856 57.1161 57.5856 53.4879Z" fill="#F68B1F"/>
<path d="M72.216 38.8577C69.407 38.8577 66.8321 39.6185 64.6084 40.9644V31.8352H57.5859V53.4879C57.5859 57.1161 58.9319 60.4518 61.0972 62.9682C63.789 66.1283 67.7685 68.1181 72.216 68.1181C80.2918 68.1181 86.8462 61.5637 86.8462 53.4879C86.8462 45.412 80.2918 38.8577 72.216 38.8577ZM72.216 61.0956C68.0025 61.0956 64.6084 57.7014 64.6084 53.4879C64.6084 49.2744 68.0025 45.8801 72.216 45.8801C76.4295 45.8801 79.8237 49.2744 79.8237 53.4879C79.8237 57.7014 76.3711 61.0956 72.216 61.0956Z" fill="#002D63"/>
</svg>
