<svg width="100" height="100" viewBox="0 0 100 100" fill="none" xmlns="http://www.w3.org/2000/svg">
<rect width="100" height="100" fill="#002469"/>
<g clip-path="url(#clip0_17_2)">
<path d="M27.6829 59.5993C27.6829 60.0974 28.3677 60.1594 28.7411 60.1594H29.0525C29.986 60.098 29.986 59.724 29.986 59.5993V39.5601C30.0474 39.0614 29.3632 39 28.9278 39H28.7435C28.3677 39 27.6829 39.0614 27.6829 39.5601V59.5993Z" fill="#E1091D"/>
<path d="M15.174 59.5993C15.174 60.0974 15.8588 60.1594 16.2323 60.1594H16.5437C17.4772 60.098 17.4772 59.724 17.4772 59.5993V39.5601C17.4772 39.0614 16.8544 39 16.419 39H16.2347C15.7962 39 15.174 39.0614 15.174 39.5601V59.5993Z" fill="#E1091D"/>
<path d="M19.3436 59.5993C19.3436 60.0974 20.0285 60.1594 20.4019 60.1594H20.7753C21.7088 60.098 21.7088 59.724 21.7088 59.5993V39.5601C21.7088 39.0614 21.024 39 20.6506 39H20.4019C20.0285 39 19.3436 39.0614 19.3436 39.5601V59.5993Z" fill="#E1091D"/>
<path d="M23.5133 59.5993C23.5133 60.0974 24.198 60.1594 24.5715 60.1594H24.8828C25.8164 60.098 25.8164 59.724 25.8164 59.5993V39.5601C25.8164 39.0614 25.1316 39 24.7582 39H24.5739C24.1981 39 23.5133 39.0614 23.5133 39.5601V59.5993Z" fill="#E1091D"/>
<path d="M12.5601 48.3974C12.0614 48.3974 12 49.0822 12 49.4557V49.8291C12.0614 50.7626 12.4355 50.7626 12.5601 50.7626H32.5993C33.0974 50.7626 33.1594 50.0778 33.1594 49.7044V49.4557C33.1594 49.0822 33.098 48.3974 32.5993 48.3974H12.5601Z" fill="#E1091D"/>
<path d="M62.3467 55.9272C59.0486 55.9272 57.8019 54.1221 57.8019 49.455C57.8019 44.8488 58.9841 43.1696 62.2853 43.1696H62.4082C65.6442 43.1696 66.8916 44.85 66.8916 49.455C66.8302 54.1227 65.5846 55.9272 62.3467 55.9272ZM62.3467 40.5557C56.7455 40.5557 54.1942 43.3563 54.1942 49.5171C54.1942 55.6158 56.8081 58.5411 62.16 58.6031H62.4088C67.8233 58.6031 70.4366 55.6158 70.4366 49.5171C70.4366 43.2937 67.948 40.5557 62.3467 40.5557Z" fill="white"/>
<path d="M39.7563 57.2341C40.8765 58.1057 42.4322 58.4791 44.9214 58.4791H45.0442C47.5335 58.4791 49.0892 58.1057 50.2721 57.2341C51.8898 55.9898 52.203 54.4992 52.203 51.6955V41.5519C52.2106 41.4604 52.198 41.3685 52.1662 41.2824C52.1344 41.1963 52.084 41.1183 52.0188 41.0538C51.767 40.8032 51.2069 40.6804 50.2733 40.6804C49.6868 40.6055 49.0926 40.7375 48.593 41.0538C48.5277 41.1183 48.4774 41.1963 48.4456 41.2824C48.4137 41.3684 48.4011 41.4604 48.4087 41.5519V52.1316C48.4087 53.874 48.4087 54.2474 47.5999 54.9322C46.8005 55.4326 45.8653 55.6719 44.9239 55.617C43.9792 55.7018 43.0341 55.4589 42.2473 54.9292C41.4384 54.307 41.4384 53.9336 41.4384 52.1912V41.5519C41.446 41.4604 41.4334 41.3684 41.4016 41.2824C41.3698 41.1963 41.3194 41.1183 41.2542 41.0538C40.7534 40.7366 40.1575 40.6045 39.5695 40.6804C38.983 40.6055 38.3888 40.7375 37.8892 41.0538C37.8239 41.1183 37.7736 41.1963 37.7418 41.2824C37.7099 41.3684 37.6974 41.4604 37.7049 41.5519V51.6955C37.8278 54.4962 38.0783 55.9898 39.7587 57.2341" fill="white"/>
<path d="M80.0828 55.8658H76.0999V50.5759H80.3315C82.6967 50.5759 83.1321 51.5715 83.1321 53.2519C83.1935 55.4924 82.3853 55.8658 80.0828 55.8658ZM76.0999 43.2323H80.1448C82.2606 43.2323 82.3853 44.2905 82.3853 45.6595C82.3853 47.3398 81.6385 48.024 79.834 48.024H76.0999V43.2323ZM84.5017 41.7386C83.5682 41.0538 82.4479 40.805 80.2701 40.805H73.0505C72.8856 40.8054 72.7275 40.871 72.6109 40.9876C72.4943 41.1042 72.4287 41.2623 72.4283 41.4272V57.8569C72.4287 58.0218 72.4943 58.1799 72.6109 58.2965C72.7275 58.4131 72.8856 58.4787 73.0505 58.4791H80.6429C82.6967 58.4791 84.1277 58.4177 85.372 57.4835C86.741 56.4253 86.9903 54.7455 86.9903 53.5006C87.036 52.8096 86.9191 52.1175 86.6489 51.4799C86.3787 50.8423 85.9629 50.2769 85.4347 49.8291C84.9896 49.539 84.5082 49.3088 84.003 49.1443L83.6917 49.0214L84.003 48.8986C85.4967 48.2138 85.9948 47.2182 85.9948 45.2891C85.9334 44.2935 85.746 42.6132 84.5011 41.7417" fill="white"/>
</g>
<defs>
<clipPath id="clip0_17_2">
<rect width="75" height="21.1594" fill="white" transform="translate(12 39)"/>
</clipPath>
</defs>
</svg>
