<svg width="100" height="100" viewBox="0 0 100 100" fill="none" xmlns="http://www.w3.org/2000/svg">
<rect width="100" height="100" fill="#123274"/>
<path d="M47.0605 19.9414V46.7773H52.8613V19.9414C52.8613 18.125 54.3262 16.6016 56.084 16.6016C57.8418 16.6016 59.3066 18.125 59.3066 19.9414V46.7773H65.1074V19.9414C65.1074 18.125 66.5723 16.6016 68.3301 16.6016C70.0879 16.6016 71.5527 18.125 71.5527 19.9414V46.7773H79.9902C81.8652 46.7773 83.3301 48.1836 83.3301 50C83.3301 51.7578 81.8066 53.2227 79.9902 53.2227H71.5527V80.0586C71.5527 81.875 70.0879 83.3984 68.3301 83.3984C66.5723 83.3984 65.1074 81.875 65.1074 80.0586V53.2227H59.3066V80.0586C59.3066 81.875 57.8418 83.3984 56.084 83.3984C54.3262 83.3984 52.8613 81.875 52.8613 80.0586V53.2227H47.0605V80.0586C47.0605 81.875 45.5957 83.3984 43.8379 83.3984C42.0801 83.3984 40.6152 81.875 40.6152 80.0586V53.2227H34.8145V80.0586C34.8145 81.875 33.3496 83.3984 31.5918 83.3984C29.834 83.3984 28.3691 81.875 28.3691 80.0586V53.2227H19.9316C18.0566 53.2227 16.5918 51.7578 16.5918 50C16.5918 48.2422 18.0566 46.7773 19.9316 46.7773H28.3691V19.9414C28.3691 18.125 29.834 16.6016 31.5918 16.6016C33.3496 16.6016 34.8145 18.125 34.8145 19.9414V46.7773H40.6738V19.9414C40.6738 18.125 42.1387 16.6016 43.8965 16.6016C45.6543 16.6016 47.0605 18.125 47.0605 19.9414Z" fill="white"/>
</svg>
